solid OpenSCAD_Model
  facet normal -1 0 0
    outer loop
      vertex 0.700001 0 -1
      vertex 0.700001 1 15
      vertex 0.700001 1 -1
    endloop
  endfacet
  facet normal -1 -0 0
    outer loop
      vertex 0.700001 1 15
      vertex 0.700001 0 -1
      vertex 0.700001 0 15
    endloop
  endfacet
  facet normal 0 0 1
    outer loop
      vertex 33 91 15
      vertex 32.5 91 15
      vertex 33 77.5 15
    endloop
  endfacet
  facet normal 0 0 1
    outer loop
      vertex 33.5 77.5 15
      vertex 33 77.5 15
      vertex 33.5 1 15
    endloop
  endfacet
  facet normal -0 0 1
    outer loop
      vertex 33.5 1 15
      vertex 58 0 15
      vertex 58 1 15
    endloop
  endfacet
  facet normal 0 0 1
    outer loop
      vertex 32.5 77.5 15
      vertex 33 77.5 15
      vertex 32.5 91 15
    endloop
  endfacet
  facet normal 0 0 1
    outer loop
      vertex 33 77.5 15
      vertex 32.5 77.5 15
      vertex 33.5 1 15
    endloop
  endfacet
  facet normal 0 0 1
    outer loop
      vertex 31.5 1 15
      vertex 32.5 77.5 15
      vertex 31.5 77.5 15
    endloop
  endfacet
  facet normal 0 0 1
    outer loop
      vertex 32.5 77.5 15
      vertex 31.5 1 15
      vertex 33.5 1 15
    endloop
  endfacet
  facet normal -0 0 1
    outer loop
      vertex 31.5 1 15
      vertex 58 0 15
      vertex 33.5 1 15
    endloop
  endfacet
  facet normal 0 0 1
    outer loop
      vertex 0.700001 0 15
      vertex 31.5 1 15
      vertex 0.700001 1 15
    endloop
  endfacet
  facet normal 0 0 1
    outer loop
      vertex 31.5 1 15
      vertex 0.700001 0 15
      vertex 58 0 15
    endloop
  endfacet
  facet normal 0 0 -1
    outer loop
      vertex 7.5 29.75 -1
      vertex 9.5 40.75 -1
      vertex 9.5 29.75 -1
    endloop
  endfacet
  facet normal -0 0 -1
    outer loop
      vertex 9.5 40.75 -1
      vertex 7.5 29.75 -1
      vertex 7.5 40.75 -1
    endloop
  endfacet
  facet normal 0 0 -1
    outer loop
      vertex 11.5 29.75 -1
      vertex 13.5 40.75 -1
      vertex 13.5 29.75 -1
    endloop
  endfacet
  facet normal -0 0 -1
    outer loop
      vertex 13.5 40.75 -1
      vertex 11.5 29.75 -1
      vertex 11.5 40.75 -1
    endloop
  endfacet
  facet normal 0 0 -1
    outer loop
      vertex 15.5 29.75 -1
      vertex 17.5 40.75 -1
      vertex 17.5 29.75 -1
    endloop
  endfacet
  facet normal -0 0 -1
    outer loop
      vertex 17.5 40.75 -1
      vertex 15.5 29.75 -1
      vertex 15.5 40.75 -1
    endloop
  endfacet
  facet normal 0 0 -1
    outer loop
      vertex 19.5 29.75 -1
      vertex 21.5 40.75 -1
      vertex 21.5 29.75 -1
    endloop
  endfacet
  facet normal -0 0 -1
    outer loop
      vertex 21.5 40.75 -1
      vertex 19.5 29.75 -1
      vertex 19.5 40.75 -1
    endloop
  endfacet
  facet normal 0 0 -1
    outer loop
      vertex 23.5 29.75 -1
      vertex 25.5 40.75 -1
      vertex 25.5 29.75 -1
    endloop
  endfacet
  facet normal -0 0 -1
    outer loop
      vertex 25.5 40.75 -1
      vertex 23.5 29.75 -1
      vertex 23.5 40.75 -1
    endloop
  endfacet
  facet normal 0 0 -1
    outer loop
      vertex 43.8 0 -1
      vertex 25.5 9.75 -1
      vertex 43.8 3 -1
    endloop
  endfacet
  facet normal 0 0 -1
    outer loop
      vertex 43.8 0 -1
      vertex 23.5 9.75 -1
      vertex 25.5 9.75 -1
    endloop
  endfacet
  facet normal 0 0 -1
    outer loop
      vertex 21.5 29.75 -1
      vertex 23.5 29.75 -1
      vertex 23.5 9.75 -1
    endloop
  endfacet
  facet normal 0 0 -1
    outer loop
      vertex 23.5 29.75 -1
      vertex 21.5 29.75 -1
      vertex 23.5 40.75 -1
    endloop
  endfacet
  facet normal 0 0 -1
    outer loop
      vertex 21.5 29.75 -1
      vertex 23.5 9.75 -1
      vertex 21.5 9.75 -1
    endloop
  endfacet
  facet normal 0 0 -1
    outer loop
      vertex 43.8 0 -1
      vertex 21.5 9.75 -1
      vertex 23.5 9.75 -1
    endloop
  endfacet
  facet normal 0 0 -1
    outer loop
      vertex 0.700001 0 -1
      vertex 21.5 9.75 -1
      vertex 43.8 0 -1
    endloop
  endfacet
  facet normal 0 0 -1
    outer loop
      vertex 17.5 29.75 -1
      vertex 19.5 29.75 -1
      vertex 19.5 9.75 -1
    endloop
  endfacet
  facet normal 0 0 -1
    outer loop
      vertex 19.5 29.75 -1
      vertex 17.5 29.75 -1
      vertex 19.5 40.75 -1
    endloop
  endfacet
  facet normal 0 0 -1
    outer loop
      vertex 17.5 29.75 -1
      vertex 19.5 9.75 -1
      vertex 17.5 9.75 -1
    endloop
  endfacet
  facet normal -0 0 -1
    outer loop
      vertex 21.5 9.75 -1
      vertex 0.700001 0 -1
      vertex 19.5 9.75 -1
    endloop
  endfacet
  facet normal -0 0 -1
    outer loop
      vertex 19.5 9.75 -1
      vertex 0.700001 0 -1
      vertex 17.5 9.75 -1
    endloop
  endfacet
  facet normal 0 0 -1
    outer loop
      vertex 13.5 29.75 -1
      vertex 15.5 29.75 -1
      vertex 15.5 9.75 -1
    endloop
  endfacet
  facet normal 0 0 -1
    outer loop
      vertex 15.5 29.75 -1
      vertex 13.5 29.75 -1
      vertex 15.5 40.75 -1
    endloop
  endfacet
  facet normal 0 0 -1
    outer loop
      vertex 13.5 29.75 -1
      vertex 15.5 9.75 -1
      vertex 13.5 9.75 -1
    endloop
  endfacet
  facet normal -0 0 -1
    outer loop
      vertex 17.5 9.75 -1
      vertex 0.700001 0 -1
      vertex 15.5 9.75 -1
    endloop
  endfacet
  facet normal -0 0 -1
    outer loop
      vertex 15.5 9.75 -1
      vertex 0.700001 0 -1
      vertex 13.5 9.75 -1
    endloop
  endfacet
  facet normal 0 0 -1
    outer loop
      vertex 9.5 29.75 -1
      vertex 11.5 29.75 -1
      vertex 11.5 9.75 -1
    endloop
  endfacet
  facet normal 0 0 -1
    outer loop
      vertex 11.5 29.75 -1
      vertex 9.5 29.75 -1
      vertex 11.5 40.75 -1
    endloop
  endfacet
  facet normal 0 0 -1
    outer loop
      vertex 9.5 29.75 -1
      vertex 11.5 9.75 -1
      vertex 9.5 9.75 -1
    endloop
  endfacet
  facet normal -0 0 -1
    outer loop
      vertex 13.5 9.75 -1
      vertex 0.700001 0 -1
      vertex 11.5 9.75 -1
    endloop
  endfacet
  facet normal -0 0 -1
    outer loop
      vertex 11.5 9.75 -1
      vertex 0.700001 0 -1
      vertex 9.5 9.75 -1
    endloop
  endfacet
  facet normal 0 0 -1
    outer loop
      vertex 0.75 1 -1
      vertex 7.5 29.75 -1
      vertex 7.5 9.75 -1
    endloop
  endfacet
  facet normal -0 0 -1
    outer loop
      vertex 7.5 29.75 -1
      vertex 0.75 1 -1
      vertex 7.5 40.75 -1
    endloop
  endfacet
  facet normal 0 0 -1
    outer loop
      vertex 0.75 91 -1
      vertex 7.5 40.75 -1
      vertex 0.75 1 -1
    endloop
  endfacet
  facet normal 0 -0 -1
    outer loop
      vertex 0.75 1 -1
      vertex 9.5 9.75 -1
      vertex 0.700001 0 -1
    endloop
  endfacet
  facet normal -0 0 -1
    outer loop
      vertex 9.5 9.75 -1
      vertex 0.75 1 -1
      vertex 7.5 9.75 -1
    endloop
  endfacet
  facet normal -0 0 -1
    outer loop
      vertex 0.75 1 -1
      vertex 0.700001 0 -1
      vertex 0.700001 1 -1
    endloop
  endfacet
  facet normal 0 0 -1
    outer loop
      vertex 47.4 3 -1
      vertex 58 0 -1
      vertex 47.4 0 -1
    endloop
  endfacet
  facet normal 0 0 -1
    outer loop
      vertex 25.5 40.75 -1
      vertex 58 0 -1
      vertex 47.4 3 -1
    endloop
  endfacet
  facet normal 0 0 -1
    outer loop
      vertex 25.5 29.75 -1
      vertex 47.4 3 -1
      vertex 43.8 3 -1
    endloop
  endfacet
  facet normal 0 0 -1
    outer loop
      vertex 25.5 29.75 -1
      vertex 43.8 3 -1
      vertex 25.5 9.75 -1
    endloop
  endfacet
  facet normal 0 0 -1
    outer loop
      vertex 47.4 3 -1
      vertex 25.5 29.75 -1
      vertex 25.5 40.75 -1
    endloop
  endfacet
  facet normal 0 0 -1
    outer loop
      vertex 58 0 -1
      vertex 25.5 40.75 -1
      vertex 58 91 -1
    endloop
  endfacet
  facet normal 0 0 -1
    outer loop
      vertex 25.5 60.75 -1
      vertex 58 91 -1
      vertex 25.5 40.75 -1
    endloop
  endfacet
  facet normal 0 0 -1
    outer loop
      vertex 0.75 91 -1
      vertex 25.5 60.75 -1
      vertex 23.5 60.75 -1
    endloop
  endfacet
  facet normal 0 0 -1
    outer loop
      vertex 21.5 40.75 -1
      vertex 23.5 40.75 -1
      vertex 21.5 29.75 -1
    endloop
  endfacet
  facet normal 0 0 -1
    outer loop
      vertex 23.5 40.75 -1
      vertex 21.5 40.75 -1
      vertex 23.5 60.75 -1
    endloop
  endfacet
  facet normal 0 0 -1
    outer loop
      vertex 21.5 60.75 -1
      vertex 23.5 60.75 -1
      vertex 21.5 40.75 -1
    endloop
  endfacet
  facet normal 0 0 -1
    outer loop
      vertex 0.75 91 -1
      vertex 23.5 60.75 -1
      vertex 21.5 60.75 -1
    endloop
  endfacet
  facet normal 0 0 -1
    outer loop
      vertex 0.75 91 -1
      vertex 21.5 60.75 -1
      vertex 19.5 60.75 -1
    endloop
  endfacet
  facet normal 0 0 -1
    outer loop
      vertex 17.5 40.75 -1
      vertex 19.5 40.75 -1
      vertex 17.5 29.75 -1
    endloop
  endfacet
  facet normal 0 0 -1
    outer loop
      vertex 19.5 40.75 -1
      vertex 17.5 40.75 -1
      vertex 19.5 60.75 -1
    endloop
  endfacet
  facet normal 0 0 -1
    outer loop
      vertex 17.5 60.75 -1
      vertex 19.5 60.75 -1
      vertex 17.5 40.75 -1
    endloop
  endfacet
  facet normal 0 0 -1
    outer loop
      vertex 0.75 91 -1
      vertex 19.5 60.75 -1
      vertex 17.5 60.75 -1
    endloop
  endfacet
  facet normal 0 0 -1
    outer loop
      vertex 0.75 91 -1
      vertex 17.5 60.75 -1
      vertex 15.5 60.75 -1
    endloop
  endfacet
  facet normal 0 0 -1
    outer loop
      vertex 13.5 40.75 -1
      vertex 15.5 40.75 -1
      vertex 13.5 29.75 -1
    endloop
  endfacet
  facet normal 0 0 -1
    outer loop
      vertex 15.5 40.75 -1
      vertex 13.5 40.75 -1
      vertex 15.5 60.75 -1
    endloop
  endfacet
  facet normal 0 0 -1
    outer loop
      vertex 13.5 60.75 -1
      vertex 15.5 60.75 -1
      vertex 13.5 40.75 -1
    endloop
  endfacet
  facet normal 0 0 -1
    outer loop
      vertex 0.75 91 -1
      vertex 15.5 60.75 -1
      vertex 13.5 60.75 -1
    endloop
  endfacet
  facet normal 0 0 -1
    outer loop
      vertex 0.75 91 -1
      vertex 13.5 60.75 -1
      vertex 11.5 60.75 -1
    endloop
  endfacet
  facet normal 0 0 -1
    outer loop
      vertex 9.5 40.75 -1
      vertex 11.5 40.75 -1
      vertex 9.5 29.75 -1
    endloop
  endfacet
  facet normal 0 0 -1
    outer loop
      vertex 11.5 40.75 -1
      vertex 9.5 40.75 -1
      vertex 11.5 60.75 -1
    endloop
  endfacet
  facet normal 0 0 -1
    outer loop
      vertex 9.5 60.75 -1
      vertex 11.5 60.75 -1
      vertex 9.5 40.75 -1
    endloop
  endfacet
  facet normal 0 0 -1
    outer loop
      vertex 0.75 91 -1
      vertex 11.5 60.75 -1
      vertex 9.5 60.75 -1
    endloop
  endfacet
  facet normal 0 0 -1
    outer loop
      vertex 0.75 91 -1
      vertex 9.5 60.75 -1
      vertex 7.5 60.75 -1
    endloop
  endfacet
  facet normal 0 0 -1
    outer loop
      vertex 25.5 60.75 -1
      vertex 0.75 91 -1
      vertex 58 91 -1
    endloop
  endfacet
  facet normal 0 0 -1
    outer loop
      vertex 7.5 40.75 -1
      vertex 0.75 91 -1
      vertex 7.5 60.75 -1
    endloop
  endfacet
  facet normal 0 -1 0
    outer loop
      vertex 47.4 0 1
      vertex 47.4 0 -1
      vertex 53.3 0 1
    endloop
  endfacet
  facet normal 0 -1 0
    outer loop
      vertex 0.700001 0 15
      vertex 38.3 0 13
      vertex 58 0 15
    endloop
  endfacet
  facet normal 0 -1 0
    outer loop
      vertex 0.700001 0 15
      vertex 38.3 0 1
      vertex 38.3 0 13
    endloop
  endfacet
  facet normal 0 -1 0
    outer loop
      vertex 0.700001 0 -1
      vertex 38.3 0 1
      vertex 0.700001 0 15
    endloop
  endfacet
  facet normal 0 -1 0
    outer loop
      vertex 43.8 0 -1
      vertex 38.3 0 1
      vertex 0.700001 0 -1
    endloop
  endfacet
  facet normal 0 -1 0
    outer loop
      vertex 38.3 0 1
      vertex 43.8 0 -1
      vertex 43.8 0 1
    endloop
  endfacet
  facet normal 0 -1 0
    outer loop
      vertex 53.3 0 13
      vertex 58 0 15
      vertex 38.3 0 13
    endloop
  endfacet
  facet normal 0 -1 0
    outer loop
      vertex 53.3 0 1
      vertex 58 0 15
      vertex 53.3 0 13
    endloop
  endfacet
  facet normal 0 -1 0
    outer loop
      vertex 53.3 0 1
      vertex 58 0 -1
      vertex 58 0 15
    endloop
  endfacet
  facet normal 0 -1 0
    outer loop
      vertex 58 0 -1
      vertex 53.3 0 1
      vertex 47.4 0 -1
    endloop
  endfacet
  facet normal 0 1 -0
    outer loop
      vertex 31.5 1 1
      vertex 0.700001 1 15
      vertex 31.5 1 15
    endloop
  endfacet
  facet normal 0 1 -0
    outer loop
      vertex 0.75 1 1
      vertex 0.700001 1 15
      vertex 31.5 1 1
    endloop
  endfacet
  facet normal 0 1 0
    outer loop
      vertex 0.700001 1 -1
      vertex 0.75 1 1
      vertex 0.75 1 -1
    endloop
  endfacet
  facet normal 0 1 0
    outer loop
      vertex 0.75 1 1
      vertex 0.700001 1 -1
      vertex 0.700001 1 15
    endloop
  endfacet
  facet normal 0.809017 0.587785 0
    outer loop
      vertex 5.9 6 7.5
      vertex 5.07082 7.14127 3.8
      vertex 5.07082 7.14127 7.5
    endloop
  endfacet
  facet normal 0.809017 0.587785 0
    outer loop
      vertex 5.07082 7.14127 3.8
      vertex 5.9 6 7.5
      vertex 5.9 6 3.8
    endloop
  endfacet
  facet normal -1 0 0
    outer loop
      vertex 3.72918 5.29466 3.8
      vertex 3.72918 6.70534 7.5
      vertex 3.72918 6.70534 3.8
    endloop
  endfacet
  facet normal -1 -0 0
    outer loop
      vertex 3.72918 6.70534 7.5
      vertex 3.72918 5.29466 3.8
      vertex 3.72918 5.29466 7.5
    endloop
  endfacet
  facet normal -0.309017 0.951056 0
    outer loop
      vertex 5.07082 7.14127 3.8
      vertex 3.72918 6.70534 7.5
      vertex 5.07082 7.14127 7.5
    endloop
  endfacet
  facet normal -0.309017 0.951056 0
    outer loop
      vertex 3.72918 6.70534 7.5
      vertex 5.07082 7.14127 3.8
      vertex 3.72918 6.70534 3.8
    endloop
  endfacet
  facet normal -0.309017 -0.951056 0
    outer loop
      vertex 3.72918 5.29466 3.8
      vertex 5.07082 4.85873 7.5
      vertex 3.72918 5.29466 7.5
    endloop
  endfacet
  facet normal -0.309017 -0.951056 -0
    outer loop
      vertex 5.07082 4.85873 7.5
      vertex 3.72918 5.29466 3.8
      vertex 5.07082 4.85873 3.8
    endloop
  endfacet
  facet normal 0 0 1
    outer loop
      vertex 5.07082 7.14127 7.5
      vertex 5.07082 4.85873 7.5
      vertex 5.9 6 7.5
    endloop
  endfacet
  facet normal -0 0 1
    outer loop
      vertex 3.72918 6.70534 7.5
      vertex 5.07082 4.85873 7.5
      vertex 5.07082 7.14127 7.5
    endloop
  endfacet
  facet normal 0 0 1
    outer loop
      vertex 5.07082 4.85873 7.5
      vertex 3.72918 6.70534 7.5
      vertex 3.72918 5.29466 7.5
    endloop
  endfacet
  facet normal 0.809017 -0.587785 0
    outer loop
      vertex 5.07082 4.85873 7.5
      vertex 5.9 6 3.8
      vertex 5.9 6 7.5
    endloop
  endfacet
  facet normal 0.809017 -0.587785 0
    outer loop
      vertex 5.9 6 3.8
      vertex 5.07082 4.85873 7.5
      vertex 5.07082 4.85873 3.8
    endloop
  endfacet
  facet normal 0.951056 0.309017 0
    outer loop
      vertex 7.7 6 3.8
      vertex 7.12705 7.76336 1
      vertex 7.12705 7.76336 3.8
    endloop
  endfacet
  facet normal 0.951056 0.309017 0
    outer loop
      vertex 7.12705 7.76336 1
      vertex 7.7 6 3.8
      vertex 7.7 6 1
    endloop
  endfacet
  facet normal -0.951056 0.309017 0
    outer loop
      vertex 1.7 6 1
      vertex 2.27295 7.76336 3.8
      vertex 2.27295 7.76336 1
    endloop
  endfacet
  facet normal -0.951056 0.309017 0
    outer loop
      vertex 2.27295 7.76336 3.8
      vertex 1.7 6 1
      vertex 1.7 6 3.8
    endloop
  endfacet
  facet normal 0 -1 0
    outer loop
      vertex 3.77295 3.14683 1
      vertex 5.62705 3.14683 3.8
      vertex 3.77295 3.14683 3.8
    endloop
  endfacet
  facet normal 0 -1 -0
    outer loop
      vertex 5.62705 3.14683 3.8
      vertex 3.77295 3.14683 1
      vertex 5.62705 3.14683 1
    endloop
  endfacet
  facet normal 0 1 -0
    outer loop
      vertex 5.62705 8.85317 1
      vertex 3.77295 8.85317 3.8
      vertex 5.62705 8.85317 3.8
    endloop
  endfacet
  facet normal 0 1 0
    outer loop
      vertex 3.77295 8.85317 3.8
      vertex 5.62705 8.85317 1
      vertex 3.77295 8.85317 1
    endloop
  endfacet
  facet normal 0.587785 0.809017 -0
    outer loop
      vertex 7.12705 7.76336 1
      vertex 5.62705 8.85317 3.8
      vertex 7.12705 7.76336 3.8
    endloop
  endfacet
  facet normal 0.587785 0.809017 0
    outer loop
      vertex 5.62705 8.85317 3.8
      vertex 7.12705 7.76336 1
      vertex 5.62705 8.85317 1
    endloop
  endfacet
  facet normal 0 0 1
    outer loop
      vertex 5.9 6 3.8
      vertex 7.7 6 3.8
      vertex 7.12705 7.76336 3.8
    endloop
  endfacet
  facet normal 0 0 1
    outer loop
      vertex 7.7 6 3.8
      vertex 5.9 6 3.8
      vertex 7.12705 4.23664 3.8
    endloop
  endfacet
  facet normal 0 0 1
    outer loop
      vertex 5.07082 7.14127 3.8
      vertex 7.12705 7.76336 3.8
      vertex 5.62705 8.85317 3.8
    endloop
  endfacet
  facet normal 0 0 1
    outer loop
      vertex 7.12705 7.76336 3.8
      vertex 5.07082 7.14127 3.8
      vertex 5.9 6 3.8
    endloop
  endfacet
  facet normal -0 0 1
    outer loop
      vertex 3.77295 8.85317 3.8
      vertex 5.07082 7.14127 3.8
      vertex 5.62705 8.85317 3.8
    endloop
  endfacet
  facet normal 0 0 1
    outer loop
      vertex 3.77295 8.85317 3.8
      vertex 3.72918 6.70534 3.8
      vertex 5.07082 7.14127 3.8
    endloop
  endfacet
  facet normal 0 0 1
    outer loop
      vertex 1.7 6 3.8
      vertex 3.72918 6.70534 3.8
      vertex 2.27295 7.76336 3.8
    endloop
  endfacet
  facet normal -0 0 1
    outer loop
      vertex 2.27295 7.76336 3.8
      vertex 3.72918 6.70534 3.8
      vertex 3.77295 8.85317 3.8
    endloop
  endfacet
  facet normal -0 0 1
    outer loop
      vertex 5.07082 4.85873 3.8
      vertex 7.12705 4.23664 3.8
      vertex 5.9 6 3.8
    endloop
  endfacet
  facet normal 0 0 1
    outer loop
      vertex 7.12705 4.23664 3.8
      vertex 5.07082 4.85873 3.8
      vertex 5.62705 3.14683 3.8
    endloop
  endfacet
  facet normal 0 0 1
    outer loop
      vertex 5.07082 4.85873 3.8
      vertex 3.77295 3.14683 3.8
      vertex 5.62705 3.14683 3.8
    endloop
  endfacet
  facet normal 0 0 1
    outer loop
      vertex 3.72918 5.29466 3.8
      vertex 3.77295 3.14683 3.8
      vertex 5.07082 4.85873 3.8
    endloop
  endfacet
  facet normal 0 0 1
    outer loop
      vertex 3.72918 6.70534 3.8
      vertex 1.7 6 3.8
      vertex 3.72918 5.29466 3.8
    endloop
  endfacet
  facet normal 0 0 1
    outer loop
      vertex 3.72918 5.29466 3.8
      vertex 2.27295 4.23664 3.8
      vertex 3.77295 3.14683 3.8
    endloop
  endfacet
  facet normal 0 0 1
    outer loop
      vertex 3.72918 5.29466 3.8
      vertex 1.7 6 3.8
      vertex 2.27295 4.23664 3.8
    endloop
  endfacet
  facet normal -0.587785 0.809017 0
    outer loop
      vertex 3.77295 8.85317 1
      vertex 2.27295 7.76336 3.8
      vertex 3.77295 8.85317 3.8
    endloop
  endfacet
  facet normal -0.587785 0.809017 0
    outer loop
      vertex 2.27295 7.76336 3.8
      vertex 3.77295 8.85317 1
      vertex 2.27295 7.76336 1
    endloop
  endfacet
  facet normal 0.951056 -0.309017 0
    outer loop
      vertex 7.12705 4.23664 3.8
      vertex 7.7 6 1
      vertex 7.7 6 3.8
    endloop
  endfacet
  facet normal 0.951056 -0.309017 0
    outer loop
      vertex 7.7 6 1
      vertex 7.12705 4.23664 3.8
      vertex 7.12705 4.23664 1
    endloop
  endfacet
  facet normal 0.587785 -0.809017 0
    outer loop
      vertex 5.62705 3.14683 1
      vertex 7.12705 4.23664 3.8
      vertex 5.62705 3.14683 3.8
    endloop
  endfacet
  facet normal 0.587785 -0.809017 0
    outer loop
      vertex 7.12705 4.23664 3.8
      vertex 5.62705 3.14683 1
      vertex 7.12705 4.23664 1
    endloop
  endfacet
  facet normal -0.587785 -0.809017 0
    outer loop
      vertex 2.27295 4.23664 1
      vertex 3.77295 3.14683 3.8
      vertex 2.27295 4.23664 3.8
    endloop
  endfacet
  facet normal -0.587785 -0.809017 -0
    outer loop
      vertex 3.77295 3.14683 3.8
      vertex 2.27295 4.23664 1
      vertex 3.77295 3.14683 1
    endloop
  endfacet
  facet normal -0.951056 -0.309017 0
    outer loop
      vertex 2.27295 4.23664 1
      vertex 1.7 6 3.8
      vertex 1.7 6 1
    endloop
  endfacet
  facet normal -0.951056 -0.309017 0
    outer loop
      vertex 1.7 6 3.8
      vertex 2.27295 4.23664 1
      vertex 2.27295 4.23664 3.8
    endloop
  endfacet
  facet normal 0.809017 0.587785 0
    outer loop
      vertex 28.9 6 7.5
      vertex 28.0708 7.14127 3.8
      vertex 28.0708 7.14127 7.5
    endloop
  endfacet
  facet normal 0.809017 0.587785 0
    outer loop
      vertex 28.0708 7.14127 3.8
      vertex 28.9 6 7.5
      vertex 28.9 6 3.8
    endloop
  endfacet
  facet normal -1 0 0
    outer loop
      vertex 26.7292 5.29466 3.8
      vertex 26.7292 6.70534 7.5
      vertex 26.7292 6.70534 3.8
    endloop
  endfacet
  facet normal -1 -0 0
    outer loop
      vertex 26.7292 6.70534 7.5
      vertex 26.7292 5.29466 3.8
      vertex 26.7292 5.29466 7.5
    endloop
  endfacet
  facet normal -0.309017 0.951056 0
    outer loop
      vertex 28.0708 7.14127 3.8
      vertex 26.7292 6.70534 7.5
      vertex 28.0708 7.14127 7.5
    endloop
  endfacet
  facet normal -0.309017 0.951056 0
    outer loop
      vertex 26.7292 6.70534 7.5
      vertex 28.0708 7.14127 3.8
      vertex 26.7292 6.70534 3.8
    endloop
  endfacet
  facet normal 0 0 1
    outer loop
      vertex 28.0708 7.14127 7.5
      vertex 28.0708 4.85873 7.5
      vertex 28.9 6 7.5
    endloop
  endfacet
  facet normal -0 0 1
    outer loop
      vertex 26.7292 6.70534 7.5
      vertex 28.0708 4.85873 7.5
      vertex 28.0708 7.14127 7.5
    endloop
  endfacet
  facet normal 0 0 1
    outer loop
      vertex 28.0708 4.85873 7.5
      vertex 26.7292 6.70534 7.5
      vertex 26.7292 5.29466 7.5
    endloop
  endfacet
  facet normal -0.309017 -0.951056 0
    outer loop
      vertex 26.7292 5.29466 3.8
      vertex 28.0708 4.85873 7.5
      vertex 26.7292 5.29466 7.5
    endloop
  endfacet
  facet normal -0.309017 -0.951056 -0
    outer loop
      vertex 28.0708 4.85873 7.5
      vertex 26.7292 5.29466 3.8
      vertex 28.0708 4.85873 3.8
    endloop
  endfacet
  facet normal 0.809017 -0.587785 0
    outer loop
      vertex 28.0708 4.85873 7.5
      vertex 28.9 6 3.8
      vertex 28.9 6 7.5
    endloop
  endfacet
  facet normal 0.809017 -0.587785 0
    outer loop
      vertex 28.9 6 3.8
      vertex 28.0708 4.85873 7.5
      vertex 28.0708 4.85873 3.8
    endloop
  endfacet
  facet normal 0.951056 0.309018 0
    outer loop
      vertex 30.7 6 3.8
      vertex 30.1271 7.76336 1
      vertex 30.1271 7.76336 3.8
    endloop
  endfacet
  facet normal 0.951056 0.309018 0
    outer loop
      vertex 30.1271 7.76336 1
      vertex 30.7 6 3.8
      vertex 30.7 6 1
    endloop
  endfacet
  facet normal -0.951057 0.309017 0
    outer loop
      vertex 24.7 6 1
      vertex 25.2729 7.76336 3.8
      vertex 25.2729 7.76336 1
    endloop
  endfacet
  facet normal -0.951057 0.309017 0
    outer loop
      vertex 25.2729 7.76336 3.8
      vertex 24.7 6 1
      vertex 24.7 6 3.8
    endloop
  endfacet
  facet normal 0 -1 0
    outer loop
      vertex 26.7729 3.14683 1
      vertex 28.6271 3.14683 3.8
      vertex 26.7729 3.14683 3.8
    endloop
  endfacet
  facet normal 0 -1 -0
    outer loop
      vertex 28.6271 3.14683 3.8
      vertex 26.7729 3.14683 1
      vertex 28.6271 3.14683 1
    endloop
  endfacet
  facet normal 0 1 -0
    outer loop
      vertex 28.6271 8.85317 1
      vertex 26.7729 8.85317 3.8
      vertex 28.6271 8.85317 3.8
    endloop
  endfacet
  facet normal 0 1 0
    outer loop
      vertex 26.7729 8.85317 3.8
      vertex 28.6271 8.85317 1
      vertex 26.7729 8.85317 1
    endloop
  endfacet
  facet normal 0.587785 0.809017 -0
    outer loop
      vertex 30.1271 7.76336 1
      vertex 28.6271 8.85317 3.8
      vertex 30.1271 7.76336 3.8
    endloop
  endfacet
  facet normal 0.587785 0.809017 0
    outer loop
      vertex 28.6271 8.85317 3.8
      vertex 30.1271 7.76336 1
      vertex 28.6271 8.85317 1
    endloop
  endfacet
  facet normal 0 0 1
    outer loop
      vertex 28.9 6 3.8
      vertex 30.7 6 3.8
      vertex 30.1271 7.76336 3.8
    endloop
  endfacet
  facet normal 0 0 1
    outer loop
      vertex 30.7 6 3.8
      vertex 28.9 6 3.8
      vertex 30.1271 4.23664 3.8
    endloop
  endfacet
  facet normal 0 0 1
    outer loop
      vertex 28.0708 7.14127 3.8
      vertex 30.1271 7.76336 3.8
      vertex 28.6271 8.85317 3.8
    endloop
  endfacet
  facet normal 0 0 1
    outer loop
      vertex 30.1271 7.76336 3.8
      vertex 28.0708 7.14127 3.8
      vertex 28.9 6 3.8
    endloop
  endfacet
  facet normal -0 0 1
    outer loop
      vertex 26.7729 8.85317 3.8
      vertex 28.0708 7.14127 3.8
      vertex 28.6271 8.85317 3.8
    endloop
  endfacet
  facet normal 0 0 1
    outer loop
      vertex 26.7729 8.85317 3.8
      vertex 26.7292 6.70534 3.8
      vertex 28.0708 7.14127 3.8
    endloop
  endfacet
  facet normal 0 0 1
    outer loop
      vertex 24.7 6 3.8
      vertex 26.7292 6.70534 3.8
      vertex 25.2729 7.76336 3.8
    endloop
  endfacet
  facet normal -0 0 1
    outer loop
      vertex 25.2729 7.76336 3.8
      vertex 26.7292 6.70534 3.8
      vertex 26.7729 8.85317 3.8
    endloop
  endfacet
  facet normal -0 0 1
    outer loop
      vertex 28.0708 4.85873 3.8
      vertex 30.1271 4.23664 3.8
      vertex 28.9 6 3.8
    endloop
  endfacet
  facet normal 0 0 1
    outer loop
      vertex 30.1271 4.23664 3.8
      vertex 28.0708 4.85873 3.8
      vertex 28.6271 3.14683 3.8
    endloop
  endfacet
  facet normal 0 0 1
    outer loop
      vertex 28.0708 4.85873 3.8
      vertex 26.7729 3.14683 3.8
      vertex 28.6271 3.14683 3.8
    endloop
  endfacet
  facet normal 0 0 1
    outer loop
      vertex 26.7292 5.29466 3.8
      vertex 26.7729 3.14683 3.8
      vertex 28.0708 4.85873 3.8
    endloop
  endfacet
  facet normal 0 0 1
    outer loop
      vertex 26.7292 6.70534 3.8
      vertex 24.7 6 3.8
      vertex 26.7292 5.29466 3.8
    endloop
  endfacet
  facet normal 0 0 1
    outer loop
      vertex 26.7292 5.29466 3.8
      vertex 25.2729 4.23664 3.8
      vertex 26.7729 3.14683 3.8
    endloop
  endfacet
  facet normal 0 0 1
    outer loop
      vertex 26.7292 5.29466 3.8
      vertex 24.7 6 3.8
      vertex 25.2729 4.23664 3.8
    endloop
  endfacet
  facet normal -0.587785 0.809017 0
    outer loop
      vertex 26.7729 8.85317 1
      vertex 25.2729 7.76336 3.8
      vertex 26.7729 8.85317 3.8
    endloop
  endfacet
  facet normal -0.587785 0.809017 0
    outer loop
      vertex 25.2729 7.76336 3.8
      vertex 26.7729 8.85317 1
      vertex 25.2729 7.76336 1
    endloop
  endfacet
  facet normal 0.951056 -0.309018 0
    outer loop
      vertex 30.1271 4.23664 3.8
      vertex 30.7 6 1
      vertex 30.7 6 3.8
    endloop
  endfacet
  facet normal 0.951056 -0.309018 0
    outer loop
      vertex 30.7 6 1
      vertex 30.1271 4.23664 3.8
      vertex 30.1271 4.23664 1
    endloop
  endfacet
  facet normal 0.587785 -0.809017 0
    outer loop
      vertex 28.6271 3.14683 1
      vertex 30.1271 4.23664 3.8
      vertex 28.6271 3.14683 3.8
    endloop
  endfacet
  facet normal 0.587785 -0.809017 0
    outer loop
      vertex 30.1271 4.23664 3.8
      vertex 28.6271 3.14683 1
      vertex 30.1271 4.23664 1
    endloop
  endfacet
  facet normal -0.587785 -0.809017 0
    outer loop
      vertex 25.2729 4.23664 1
      vertex 26.7729 3.14683 3.8
      vertex 25.2729 4.23664 3.8
    endloop
  endfacet
  facet normal -0.587785 -0.809017 -0
    outer loop
      vertex 26.7729 3.14683 3.8
      vertex 25.2729 4.23664 1
      vertex 26.7729 3.14683 1
    endloop
  endfacet
  facet normal -0.951057 -0.309017 0
    outer loop
      vertex 25.2729 4.23664 1
      vertex 24.7 6 3.8
      vertex 24.7 6 1
    endloop
  endfacet
  facet normal -0.951057 -0.309017 0
    outer loop
      vertex 24.7 6 3.8
      vertex 25.2729 4.23664 1
      vertex 25.2729 4.23664 3.8
    endloop
  endfacet
  facet normal 0.809016 0.587786 0
    outer loop
      vertex 5.9 64 7.5
      vertex 5.07082 65.1413 3.8
      vertex 5.07082 65.1413 7.5
    endloop
  endfacet
  facet normal 0.809016 0.587786 0
    outer loop
      vertex 5.07082 65.1413 3.8
      vertex 5.9 64 7.5
      vertex 5.9 64 3.8
    endloop
  endfacet
  facet normal -1 0 0
    outer loop
      vertex 3.72918 63.2947 3.8
      vertex 3.72918 64.7053 7.5
      vertex 3.72918 64.7053 3.8
    endloop
  endfacet
  facet normal -1 -0 0
    outer loop
      vertex 3.72918 64.7053 7.5
      vertex 3.72918 63.2947 3.8
      vertex 3.72918 63.2947 7.5
    endloop
  endfacet
  facet normal -0.309014 0.951057 0
    outer loop
      vertex 5.07082 65.1413 3.8
      vertex 3.72918 64.7053 7.5
      vertex 5.07082 65.1413 7.5
    endloop
  endfacet
  facet normal -0.309014 0.951057 0
    outer loop
      vertex 3.72918 64.7053 7.5
      vertex 5.07082 65.1413 3.8
      vertex 3.72918 64.7053 3.8
    endloop
  endfacet
  facet normal 0 0 1
    outer loop
      vertex 5.07082 65.1413 7.5
      vertex 5.07082 62.8587 7.5
      vertex 5.9 64 7.5
    endloop
  endfacet
  facet normal -0 0 1
    outer loop
      vertex 3.72918 64.7053 7.5
      vertex 5.07082 62.8587 7.5
      vertex 5.07082 65.1413 7.5
    endloop
  endfacet
  facet normal 0 0 1
    outer loop
      vertex 5.07082 62.8587 7.5
      vertex 3.72918 64.7053 7.5
      vertex 3.72918 63.2947 7.5
    endloop
  endfacet
  facet normal 0.809016 -0.587786 0
    outer loop
      vertex 5.07082 62.8587 7.5
      vertex 5.9 64 3.8
      vertex 5.9 64 7.5
    endloop
  endfacet
  facet normal 0.809016 -0.587786 0
    outer loop
      vertex 5.9 64 3.8
      vertex 5.07082 62.8587 7.5
      vertex 5.07082 62.8587 3.8
    endloop
  endfacet
  facet normal -0.309017 -0.951057 0
    outer loop
      vertex 3.72918 63.2947 3.8
      vertex 5.07082 62.8587 7.5
      vertex 3.72918 63.2947 7.5
    endloop
  endfacet
  facet normal -0.309017 -0.951057 -0
    outer loop
      vertex 5.07082 62.8587 7.5
      vertex 3.72918 63.2947 3.8
      vertex 5.07082 62.8587 3.8
    endloop
  endfacet
  facet normal 0.951056 0.309018 0
    outer loop
      vertex 7.7 64 3.8
      vertex 7.12705 65.7634 1
      vertex 7.12705 65.7634 3.8
    endloop
  endfacet
  facet normal 0.951056 0.309018 0
    outer loop
      vertex 7.12705 65.7634 1
      vertex 7.7 64 3.8
      vertex 7.7 64 1
    endloop
  endfacet
  facet normal -0.951056 0.309018 0
    outer loop
      vertex 1.7 64 1
      vertex 2.27295 65.7634 3.8
      vertex 2.27295 65.7634 1
    endloop
  endfacet
  facet normal -0.951056 0.309018 0
    outer loop
      vertex 2.27295 65.7634 3.8
      vertex 1.7 64 1
      vertex 1.7 64 3.8
    endloop
  endfacet
  facet normal 0 1 -0
    outer loop
      vertex 5.62705 66.8532 1
      vertex 3.77295 66.8532 3.8
      vertex 5.62705 66.8532 3.8
    endloop
  endfacet
  facet normal 0 1 0
    outer loop
      vertex 3.77295 66.8532 3.8
      vertex 5.62705 66.8532 1
      vertex 3.77295 66.8532 1
    endloop
  endfacet
  facet normal 0.587788 0.809015 -0
    outer loop
      vertex 7.12705 65.7634 1
      vertex 5.62705 66.8532 3.8
      vertex 7.12705 65.7634 3.8
    endloop
  endfacet
  facet normal 0.587788 0.809015 0
    outer loop
      vertex 5.62705 66.8532 3.8
      vertex 7.12705 65.7634 1
      vertex 5.62705 66.8532 1
    endloop
  endfacet
  facet normal 0 0 1
    outer loop
      vertex 5.9 64 3.8
      vertex 7.7 64 3.8
      vertex 7.12705 65.7634 3.8
    endloop
  endfacet
  facet normal 0 0 1
    outer loop
      vertex 7.7 64 3.8
      vertex 5.9 64 3.8
      vertex 7.12705 62.2366 3.8
    endloop
  endfacet
  facet normal 0 0 1
    outer loop
      vertex 5.07082 65.1413 3.8
      vertex 7.12705 65.7634 3.8
      vertex 5.62705 66.8532 3.8
    endloop
  endfacet
  facet normal 0 0 1
    outer loop
      vertex 7.12705 65.7634 3.8
      vertex 5.07082 65.1413 3.8
      vertex 5.9 64 3.8
    endloop
  endfacet
  facet normal -0 0 1
    outer loop
      vertex 3.77295 66.8532 3.8
      vertex 5.07082 65.1413 3.8
      vertex 5.62705 66.8532 3.8
    endloop
  endfacet
  facet normal 0 0 1
    outer loop
      vertex 3.77295 66.8532 3.8
      vertex 3.72918 64.7053 3.8
      vertex 5.07082 65.1413 3.8
    endloop
  endfacet
  facet normal 0 0 1
    outer loop
      vertex 1.7 64 3.8
      vertex 3.72918 64.7053 3.8
      vertex 2.27295 65.7634 3.8
    endloop
  endfacet
  facet normal -0 0 1
    outer loop
      vertex 2.27295 65.7634 3.8
      vertex 3.72918 64.7053 3.8
      vertex 3.77295 66.8532 3.8
    endloop
  endfacet
  facet normal -0 0 1
    outer loop
      vertex 5.07082 62.8587 3.8
      vertex 7.12705 62.2366 3.8
      vertex 5.9 64 3.8
    endloop
  endfacet
  facet normal 0 0 1
    outer loop
      vertex 7.12705 62.2366 3.8
      vertex 5.07082 62.8587 3.8
      vertex 5.62705 61.1468 3.8
    endloop
  endfacet
  facet normal 0 0 1
    outer loop
      vertex 5.07082 62.8587 3.8
      vertex 3.77295 61.1468 3.8
      vertex 5.62705 61.1468 3.8
    endloop
  endfacet
  facet normal 0 0 1
    outer loop
      vertex 3.72918 63.2947 3.8
      vertex 3.77295 61.1468 3.8
      vertex 5.07082 62.8587 3.8
    endloop
  endfacet
  facet normal 0 0 1
    outer loop
      vertex 3.72918 64.7053 3.8
      vertex 1.7 64 3.8
      vertex 3.72918 63.2947 3.8
    endloop
  endfacet
  facet normal 0 0 1
    outer loop
      vertex 3.72918 63.2947 3.8
      vertex 2.27295 62.2366 3.8
      vertex 3.77295 61.1468 3.8
    endloop
  endfacet
  facet normal 0 0 1
    outer loop
      vertex 3.72918 63.2947 3.8
      vertex 1.7 64 3.8
      vertex 2.27295 62.2366 3.8
    endloop
  endfacet
  facet normal -0.587788 0.809015 0
    outer loop
      vertex 3.77295 66.8532 1
      vertex 2.27295 65.7634 3.8
      vertex 3.77295 66.8532 3.8
    endloop
  endfacet
  facet normal -0.587788 0.809015 0
    outer loop
      vertex 2.27295 65.7634 3.8
      vertex 3.77295 66.8532 1
      vertex 2.27295 65.7634 1
    endloop
  endfacet
  facet normal 0.951056 -0.309017 0
    outer loop
      vertex 7.12705 62.2366 3.8
      vertex 7.7 64 1
      vertex 7.7 64 3.8
    endloop
  endfacet
  facet normal 0.951056 -0.309017 0
    outer loop
      vertex 7.7 64 1
      vertex 7.12705 62.2366 3.8
      vertex 7.12705 62.2366 1
    endloop
  endfacet
  facet normal -0.951056 -0.309017 0
    outer loop
      vertex 2.27295 62.2366 1
      vertex 1.7 64 3.8
      vertex 1.7 64 1
    endloop
  endfacet
  facet normal -0.951056 -0.309017 0
    outer loop
      vertex 1.7 64 3.8
      vertex 2.27295 62.2366 1
      vertex 2.27295 62.2366 3.8
    endloop
  endfacet
  facet normal 0 -1 0
    outer loop
      vertex 3.77295 61.1468 1
      vertex 5.62705 61.1468 3.8
      vertex 3.77295 61.1468 3.8
    endloop
  endfacet
  facet normal 0 -1 -0
    outer loop
      vertex 5.62705 61.1468 3.8
      vertex 3.77295 61.1468 1
      vertex 5.62705 61.1468 1
    endloop
  endfacet
  facet normal 0.587785 -0.809017 0
    outer loop
      vertex 5.62705 61.1468 1
      vertex 7.12705 62.2366 3.8
      vertex 5.62705 61.1468 3.8
    endloop
  endfacet
  facet normal 0.587785 -0.809017 0
    outer loop
      vertex 7.12705 62.2366 3.8
      vertex 5.62705 61.1468 1
      vertex 7.12705 62.2366 1
    endloop
  endfacet
  facet normal -0.587785 -0.809017 0
    outer loop
      vertex 2.27295 62.2366 1
      vertex 3.77295 61.1468 3.8
      vertex 2.27295 62.2366 3.8
    endloop
  endfacet
  facet normal -0.587785 -0.809017 -0
    outer loop
      vertex 3.77295 61.1468 3.8
      vertex 2.27295 62.2366 1
      vertex 3.77295 61.1468 1
    endloop
  endfacet
  facet normal 0.809016 0.587786 0
    outer loop
      vertex 28.9 64 7.5
      vertex 28.0708 65.1413 3.8
      vertex 28.0708 65.1413 7.5
    endloop
  endfacet
  facet normal 0.809016 0.587786 0
    outer loop
      vertex 28.0708 65.1413 3.8
      vertex 28.9 64 7.5
      vertex 28.9 64 3.8
    endloop
  endfacet
  facet normal -1 0 0
    outer loop
      vertex 26.7292 63.2947 3.8
      vertex 26.7292 64.7053 7.5
      vertex 26.7292 64.7053 3.8
    endloop
  endfacet
  facet normal -1 -0 0
    outer loop
      vertex 26.7292 64.7053 7.5
      vertex 26.7292 63.2947 3.8
      vertex 26.7292 63.2947 7.5
    endloop
  endfacet
  facet normal -0.309014 0.951057 0
    outer loop
      vertex 28.0708 65.1413 3.8
      vertex 26.7292 64.7053 7.5
      vertex 28.0708 65.1413 7.5
    endloop
  endfacet
  facet normal -0.309014 0.951057 0
    outer loop
      vertex 26.7292 64.7053 7.5
      vertex 28.0708 65.1413 3.8
      vertex 26.7292 64.7053 3.8
    endloop
  endfacet
  facet normal 0 0 1
    outer loop
      vertex 28.0708 65.1413 7.5
      vertex 28.0708 62.8587 7.5
      vertex 28.9 64 7.5
    endloop
  endfacet
  facet normal -0 0 1
    outer loop
      vertex 26.7292 64.7053 7.5
      vertex 28.0708 62.8587 7.5
      vertex 28.0708 65.1413 7.5
    endloop
  endfacet
  facet normal 0 0 1
    outer loop
      vertex 28.0708 62.8587 7.5
      vertex 26.7292 64.7053 7.5
      vertex 26.7292 63.2947 7.5
    endloop
  endfacet
  facet normal -0.309017 -0.951057 0
    outer loop
      vertex 26.7292 63.2947 3.8
      vertex 28.0708 62.8587 7.5
      vertex 26.7292 63.2947 7.5
    endloop
  endfacet
  facet normal -0.309017 -0.951057 -0
    outer loop
      vertex 28.0708 62.8587 7.5
      vertex 26.7292 63.2947 3.8
      vertex 28.0708 62.8587 3.8
    endloop
  endfacet
  facet normal 0.809016 -0.587786 0
    outer loop
      vertex 28.0708 62.8587 7.5
      vertex 28.9 64 3.8
      vertex 28.9 64 7.5
    endloop
  endfacet
  facet normal 0.809016 -0.587786 0
    outer loop
      vertex 28.9 64 3.8
      vertex 28.0708 62.8587 7.5
      vertex 28.0708 62.8587 3.8
    endloop
  endfacet
  facet normal 0.951056 0.309018 0
    outer loop
      vertex 30.7 64 3.8
      vertex 30.1271 65.7634 1
      vertex 30.1271 65.7634 3.8
    endloop
  endfacet
  facet normal 0.951056 0.309018 0
    outer loop
      vertex 30.1271 65.7634 1
      vertex 30.7 64 3.8
      vertex 30.7 64 1
    endloop
  endfacet
  facet normal -0.951056 0.309017 0
    outer loop
      vertex 24.7 64 1
      vertex 25.2729 65.7634 3.8
      vertex 25.2729 65.7634 1
    endloop
  endfacet
  facet normal -0.951056 0.309017 0
    outer loop
      vertex 25.2729 65.7634 3.8
      vertex 24.7 64 1
      vertex 24.7 64 3.8
    endloop
  endfacet
  facet normal 0 -1 0
    outer loop
      vertex 26.7729 61.1468 1
      vertex 28.6271 61.1468 3.8
      vertex 26.7729 61.1468 3.8
    endloop
  endfacet
  facet normal 0 -1 -0
    outer loop
      vertex 28.6271 61.1468 3.8
      vertex 26.7729 61.1468 1
      vertex 28.6271 61.1468 1
    endloop
  endfacet
  facet normal 0 1 -0
    outer loop
      vertex 28.6271 66.8532 1
      vertex 26.7729 66.8532 3.8
      vertex 28.6271 66.8532 3.8
    endloop
  endfacet
  facet normal 0 1 0
    outer loop
      vertex 26.7729 66.8532 3.8
      vertex 28.6271 66.8532 1
      vertex 26.7729 66.8532 1
    endloop
  endfacet
  facet normal 0.587788 0.809015 -0
    outer loop
      vertex 30.1271 65.7634 1
      vertex 28.6271 66.8532 3.8
      vertex 30.1271 65.7634 3.8
    endloop
  endfacet
  facet normal 0.587788 0.809015 0
    outer loop
      vertex 28.6271 66.8532 3.8
      vertex 30.1271 65.7634 1
      vertex 28.6271 66.8532 1
    endloop
  endfacet
  facet normal 0 0 1
    outer loop
      vertex 28.9 64 3.8
      vertex 30.7 64 3.8
      vertex 30.1271 65.7634 3.8
    endloop
  endfacet
  facet normal 0 0 1
    outer loop
      vertex 30.7 64 3.8
      vertex 28.9 64 3.8
      vertex 30.1271 62.2366 3.8
    endloop
  endfacet
  facet normal 0 0 1
    outer loop
      vertex 28.0708 65.1413 3.8
      vertex 30.1271 65.7634 3.8
      vertex 28.6271 66.8532 3.8
    endloop
  endfacet
  facet normal 0 0 1
    outer loop
      vertex 30.1271 65.7634 3.8
      vertex 28.0708 65.1413 3.8
      vertex 28.9 64 3.8
    endloop
  endfacet
  facet normal -0 0 1
    outer loop
      vertex 26.7729 66.8532 3.8
      vertex 28.0708 65.1413 3.8
      vertex 28.6271 66.8532 3.8
    endloop
  endfacet
  facet normal 0 0 1
    outer loop
      vertex 26.7729 66.8532 3.8
      vertex 26.7292 64.7053 3.8
      vertex 28.0708 65.1413 3.8
    endloop
  endfacet
  facet normal 0 0 1
    outer loop
      vertex 24.7 64 3.8
      vertex 26.7292 64.7053 3.8
      vertex 25.2729 65.7634 3.8
    endloop
  endfacet
  facet normal -0 0 1
    outer loop
      vertex 25.2729 65.7634 3.8
      vertex 26.7292 64.7053 3.8
      vertex 26.7729 66.8532 3.8
    endloop
  endfacet
  facet normal -0 0 1
    outer loop
      vertex 28.0708 62.8587 3.8
      vertex 30.1271 62.2366 3.8
      vertex 28.9 64 3.8
    endloop
  endfacet
  facet normal 0 0 1
    outer loop
      vertex 30.1271 62.2366 3.8
      vertex 28.0708 62.8587 3.8
      vertex 28.6271 61.1468 3.8
    endloop
  endfacet
  facet normal 0 0 1
    outer loop
      vertex 28.0708 62.8587 3.8
      vertex 26.7729 61.1468 3.8
      vertex 28.6271 61.1468 3.8
    endloop
  endfacet
  facet normal 0 0 1
    outer loop
      vertex 26.7292 63.2947 3.8
      vertex 26.7729 61.1468 3.8
      vertex 28.0708 62.8587 3.8
    endloop
  endfacet
  facet normal 0 0 1
    outer loop
      vertex 26.7292 64.7053 3.8
      vertex 24.7 64 3.8
      vertex 26.7292 63.2947 3.8
    endloop
  endfacet
  facet normal 0 0 1
    outer loop
      vertex 26.7292 63.2947 3.8
      vertex 25.2729 62.2366 3.8
      vertex 26.7729 61.1468 3.8
    endloop
  endfacet
  facet normal 0 0 1
    outer loop
      vertex 26.7292 63.2947 3.8
      vertex 24.7 64 3.8
      vertex 25.2729 62.2366 3.8
    endloop
  endfacet
  facet normal -0.587788 0.809015 0
    outer loop
      vertex 26.7729 66.8532 1
      vertex 25.2729 65.7634 3.8
      vertex 26.7729 66.8532 3.8
    endloop
  endfacet
  facet normal -0.587788 0.809015 0
    outer loop
      vertex 25.2729 65.7634 3.8
      vertex 26.7729 66.8532 1
      vertex 25.2729 65.7634 1
    endloop
  endfacet
  facet normal 0.951056 -0.309018 0
    outer loop
      vertex 30.1271 62.2366 3.8
      vertex 30.7 64 1
      vertex 30.7 64 3.8
    endloop
  endfacet
  facet normal 0.951056 -0.309018 0
    outer loop
      vertex 30.7 64 1
      vertex 30.1271 62.2366 3.8
      vertex 30.1271 62.2366 1
    endloop
  endfacet
  facet normal 0.587785 -0.809017 0
    outer loop
      vertex 28.6271 61.1468 1
      vertex 30.1271 62.2366 3.8
      vertex 28.6271 61.1468 3.8
    endloop
  endfacet
  facet normal 0.587785 -0.809017 0
    outer loop
      vertex 30.1271 62.2366 3.8
      vertex 28.6271 61.1468 1
      vertex 30.1271 62.2366 1
    endloop
  endfacet
  facet normal -0.587785 -0.809017 0
    outer loop
      vertex 25.2729 62.2366 1
      vertex 26.7729 61.1468 3.8
      vertex 25.2729 62.2366 3.8
    endloop
  endfacet
  facet normal -0.587785 -0.809017 -0
    outer loop
      vertex 26.7729 61.1468 3.8
      vertex 25.2729 62.2366 1
      vertex 26.7729 61.1468 1
    endloop
  endfacet
  facet normal -0.951057 -0.309017 0
    outer loop
      vertex 25.2729 62.2366 1
      vertex 24.7 64 3.8
      vertex 24.7 64 1
    endloop
  endfacet
  facet normal -0.951057 -0.309017 0
    outer loop
      vertex 24.7 64 3.8
      vertex 25.2729 62.2366 1
      vertex 25.2729 62.2366 3.8
    endloop
  endfacet
  facet normal -1 0 0
    outer loop
      vertex 0.75 1 -1
      vertex 0.75 91 1
      vertex 0.75 91 -1
    endloop
  endfacet
  facet normal -1 -0 0
    outer loop
      vertex 0.75 91 1
      vertex 0.75 1 -1
      vertex 0.75 1 1
    endloop
  endfacet
  facet normal 0 0 1
    outer loop
      vertex 57.75 89.5 1
      vertex 58 91 1
      vertex 57.75 90.5 1
    endloop
  endfacet
  facet normal 0 0 1
    outer loop
      vertex 58 91 1
      vertex 33.25 90.5 1
      vertex 57.75 90.5 1
    endloop
  endfacet
  facet normal 0 0 1
    outer loop
      vertex 33.25 90.5 1
      vertex 33 91 1
      vertex 33.25 89.5 1
    endloop
  endfacet
  facet normal -0 0 1
    outer loop
      vertex 33 91 1
      vertex 33.25 90.5 1
      vertex 58 91 1
    endloop
  endfacet
  facet normal 0 0 1
    outer loop
      vertex 58 91 1
      vertex 57.75 89.5 1
      vertex 58 1 1
    endloop
  endfacet
  facet normal -0 0 1
    outer loop
      vertex 33.5 77.5 1
      vertex 58 1 1
      vertex 57.75 89.5 1
    endloop
  endfacet
  facet normal 0 0 1
    outer loop
      vertex 58 1 1
      vertex 47.4 3 1
      vertex 53.3 1 1
    endloop
  endfacet
  facet normal 0 0 1
    outer loop
      vertex 58 1 1
      vertex 33.5 77.5 1
      vertex 47.4 3 1
    endloop
  endfacet
  facet normal 0 0 1
    outer loop
      vertex 43.8 3 1
      vertex 38.3 1 1
      vertex 43.8 1 1
    endloop
  endfacet
  facet normal 0 0 1
    outer loop
      vertex 47.4 3 1
      vertex 33.5 77.5 1
      vertex 43.8 3 1
    endloop
  endfacet
  facet normal 0 0 1
    outer loop
      vertex 33.5 1 1
      vertex 43.8 3 1
      vertex 33.5 77.5 1
    endloop
  endfacet
  facet normal -0 0 1
    outer loop
      vertex 33.25 89.5 1
      vertex 33.5 77.5 1
      vertex 57.75 89.5 1
    endloop
  endfacet
  facet normal 0 0 1
    outer loop
      vertex 33 77.5 1
      vertex 33.25 89.5 1
      vertex 33 91 1
    endloop
  endfacet
  facet normal 0 0 1
    outer loop
      vertex 33.25 89.5 1
      vertex 33 77.5 1
      vertex 33.5 77.5 1
    endloop
  endfacet
  facet normal 0 0 1
    outer loop
      vertex 53.3 1 1
      vertex 47.4 3 1
      vertex 47.4 1 1
    endloop
  endfacet
  facet normal 0 0 1
    outer loop
      vertex 43.8 3 1
      vertex 33.5 1 1
      vertex 38.3 1 1
    endloop
  endfacet
  facet normal 0 0 1
    outer loop
      vertex 7.12705 7.76336 1
      vertex 9.5 9.75 1
      vertex 7.5 9.75 1
    endloop
  endfacet
  facet normal 0 0 1
    outer loop
      vertex 9.5 9.75 1
      vertex 7.12705 7.76336 1
      vertex 7.7 6 1
    endloop
  endfacet
  facet normal 0 0 1
    outer loop
      vertex 7.5 29.75 1
      vertex 7.12705 7.76336 1
      vertex 7.5 9.75 1
    endloop
  endfacet
  facet normal 0 0 1
    outer loop
      vertex 2.27295 62.2366 1
      vertex 7.5 40.75 1
      vertex 3.77295 61.1468 1
    endloop
  endfacet
  facet normal 0 0 1
    outer loop
      vertex 7.5 29.75 1
      vertex 5.62705 8.85317 1
      vertex 7.12705 7.76336 1
    endloop
  endfacet
  facet normal 0 0 1
    outer loop
      vertex 7.5 40.75 1
      vertex 2.27295 62.2366 1
      vertex 7.5 29.75 1
    endloop
  endfacet
  facet normal 0 0 1
    outer loop
      vertex 7.5 29.75 1
      vertex 3.77295 8.85317 1
      vertex 5.62705 8.85317 1
    endloop
  endfacet
  facet normal 0 0 1
    outer loop
      vertex 2.27295 7.76336 1
      vertex 7.5 29.75 1
      vertex 2.27295 62.2366 1
    endloop
  endfacet
  facet normal 0 0 1
    outer loop
      vertex 7.5 29.75 1
      vertex 2.27295 7.76336 1
      vertex 3.77295 8.85317 1
    endloop
  endfacet
  facet normal 0 0 1
    outer loop
      vertex 1.7 64 1
      vertex 2.27295 7.76336 1
      vertex 2.27295 62.2366 1
    endloop
  endfacet
  facet normal 0 0 1
    outer loop
      vertex 2.27295 7.76336 1
      vertex 1.7 64 1
      vertex 1.7 6 1
    endloop
  endfacet
  facet normal -0 0 1
    outer loop
      vertex 7.5 40.75 1
      vertex 9.5 29.75 1
      vertex 9.5 40.75 1
    endloop
  endfacet
  facet normal 0 0 1
    outer loop
      vertex 9.5 29.75 1
      vertex 7.5 40.75 1
      vertex 7.5 29.75 1
    endloop
  endfacet
  facet normal -0 0 1
    outer loop
      vertex 11.5 40.75 1
      vertex 13.5 29.75 1
      vertex 13.5 40.75 1
    endloop
  endfacet
  facet normal 0 0 1
    outer loop
      vertex 13.5 29.75 1
      vertex 11.5 40.75 1
      vertex 11.5 29.75 1
    endloop
  endfacet
  facet normal -0 0 1
    outer loop
      vertex 15.5 40.75 1
      vertex 17.5 29.75 1
      vertex 17.5 40.75 1
    endloop
  endfacet
  facet normal 0 0 1
    outer loop
      vertex 17.5 29.75 1
      vertex 15.5 40.75 1
      vertex 15.5 29.75 1
    endloop
  endfacet
  facet normal -0 0 1
    outer loop
      vertex 19.5 40.75 1
      vertex 21.5 29.75 1
      vertex 21.5 40.75 1
    endloop
  endfacet
  facet normal 0 0 1
    outer loop
      vertex 21.5 29.75 1
      vertex 19.5 40.75 1
      vertex 19.5 29.75 1
    endloop
  endfacet
  facet normal -0 0 1
    outer loop
      vertex 7.12705 62.2366 1
      vertex 9.5 60.75 1
      vertex 7.7 64 1
    endloop
  endfacet
  facet normal -0 0 1
    outer loop
      vertex 5.62705 61.1468 1
      vertex 7.5 60.75 1
      vertex 7.12705 62.2366 1
    endloop
  endfacet
  facet normal -0 0 1
    outer loop
      vertex 3.77295 61.1468 1
      vertex 7.5 60.75 1
      vertex 5.62705 61.1468 1
    endloop
  endfacet
  facet normal 0 0 1
    outer loop
      vertex 7.5 60.75 1
      vertex 3.77295 61.1468 1
      vertex 7.5 40.75 1
    endloop
  endfacet
  facet normal 0 0 1
    outer loop
      vertex 9.5 60.75 1
      vertex 7.12705 62.2366 1
      vertex 7.5 60.75 1
    endloop
  endfacet
  facet normal -0 0 1
    outer loop
      vertex 23.5 40.75 1
      vertex 25.5 29.75 1
      vertex 25.5 40.75 1
    endloop
  endfacet
  facet normal 0 0 1
    outer loop
      vertex 25.5 29.75 1
      vertex 23.5 40.75 1
      vertex 23.5 29.75 1
    endloop
  endfacet
  facet normal -0 0 1
    outer loop
      vertex 30.1271 62.2366 1
      vertex 30.7 6 1
      vertex 30.7 64 1
    endloop
  endfacet
  facet normal 0 0 1
    outer loop
      vertex 30.1271 62.2366 1
      vertex 30.1271 7.76336 1
      vertex 30.7 6 1
    endloop
  endfacet
  facet normal 0 0 1
    outer loop
      vertex 25.5 40.75 1
      vertex 30.1271 62.2366 1
      vertex 28.6271 61.1468 1
    endloop
  endfacet
  facet normal 0 0 1
    outer loop
      vertex 30.1271 62.2366 1
      vertex 25.5 40.75 1
      vertex 30.1271 7.76336 1
    endloop
  endfacet
  facet normal 0 0 1
    outer loop
      vertex 25.5 60.75 1
      vertex 28.6271 61.1468 1
      vertex 26.7729 61.1468 1
    endloop
  endfacet
  facet normal -0 0 1
    outer loop
      vertex 25.5 29.75 1
      vertex 30.1271 7.76336 1
      vertex 25.5 40.75 1
    endloop
  endfacet
  facet normal 0 0 1
    outer loop
      vertex 28.6271 61.1468 1
      vertex 25.5 60.75 1
      vertex 25.5 40.75 1
    endloop
  endfacet
  facet normal 0 0 1
    outer loop
      vertex 25.2729 62.2366 1
      vertex 25.5 60.75 1
      vertex 26.7729 61.1468 1
    endloop
  endfacet
  facet normal 0 0 1
    outer loop
      vertex 23.5 60.75 1
      vertex 25.2729 62.2366 1
      vertex 24.7 64 1
    endloop
  endfacet
  facet normal 0 0 1
    outer loop
      vertex 25.2729 62.2366 1
      vertex 23.5 60.75 1
      vertex 25.5 60.75 1
    endloop
  endfacet
  facet normal 0 0 1
    outer loop
      vertex 32.5 91 1
      vertex 31.5 77.5 1
      vertex 32.5 77.5 1
    endloop
  endfacet
  facet normal 0 0 1
    outer loop
      vertex 31.5 77.5 1
      vertex 30.7 64 1
      vertex 31.5 1 1
    endloop
  endfacet
  facet normal 0 0 1
    outer loop
      vertex 31.5 77.5 1
      vertex 30.1271 65.7634 1
      vertex 30.7 64 1
    endloop
  endfacet
  facet normal -0 0 1
    outer loop
      vertex 0.75 91 1
      vertex 31.5 77.5 1
      vertex 32.5 91 1
    endloop
  endfacet
  facet normal 0 0 1
    outer loop
      vertex 31.5 77.5 1
      vertex 28.6271 66.8532 1
      vertex 30.1271 65.7634 1
    endloop
  endfacet
  facet normal 0 0 1
    outer loop
      vertex 31.5 77.5 1
      vertex 26.7729 66.8532 1
      vertex 28.6271 66.8532 1
    endloop
  endfacet
  facet normal 0 -0 1
    outer loop
      vertex 5.62705 66.8532 1
      vertex 31.5 77.5 1
      vertex 0.75 91 1
    endloop
  endfacet
  facet normal 0 -0 1
    outer loop
      vertex 7.12705 65.7634 1
      vertex 31.5 77.5 1
      vertex 5.62705 66.8532 1
    endloop
  endfacet
  facet normal 0 -0 1
    outer loop
      vertex 15.5 60.75 1
      vertex 25.2729 65.7634 1
      vertex 7.12705 65.7634 1
    endloop
  endfacet
  facet normal 0 0 1
    outer loop
      vertex 21.5 40.75 1
      vertex 23.5 40.75 1
      vertex 23.5 60.75 1
    endloop
  endfacet
  facet normal 0 0 1
    outer loop
      vertex 23.5 40.75 1
      vertex 21.5 40.75 1
      vertex 23.5 29.75 1
    endloop
  endfacet
  facet normal 0 0 1
    outer loop
      vertex 21.5 40.75 1
      vertex 23.5 60.75 1
      vertex 21.5 60.75 1
    endloop
  endfacet
  facet normal 0 0 1
    outer loop
      vertex 24.7 64 1
      vertex 21.5 60.75 1
      vertex 23.5 60.75 1
    endloop
  endfacet
  facet normal 0 0 1
    outer loop
      vertex 24.7 64 1
      vertex 19.5 60.75 1
      vertex 21.5 60.75 1
    endloop
  endfacet
  facet normal 0 0 1
    outer loop
      vertex 17.5 40.75 1
      vertex 19.5 40.75 1
      vertex 19.5 60.75 1
    endloop
  endfacet
  facet normal 0 0 1
    outer loop
      vertex 19.5 40.75 1
      vertex 17.5 40.75 1
      vertex 19.5 29.75 1
    endloop
  endfacet
  facet normal 0 0 1
    outer loop
      vertex 17.5 40.75 1
      vertex 19.5 60.75 1
      vertex 17.5 60.75 1
    endloop
  endfacet
  facet normal 0 -0 1
    outer loop
      vertex 19.5 60.75 1
      vertex 25.2729 65.7634 1
      vertex 17.5 60.75 1
    endloop
  endfacet
  facet normal 0 0 1
    outer loop
      vertex 25.2729 65.7634 1
      vertex 19.5 60.75 1
      vertex 24.7 64 1
    endloop
  endfacet
  facet normal 0 0 1
    outer loop
      vertex 13.5 40.75 1
      vertex 15.5 40.75 1
      vertex 15.5 60.75 1
    endloop
  endfacet
  facet normal 0 0 1
    outer loop
      vertex 15.5 40.75 1
      vertex 13.5 40.75 1
      vertex 15.5 29.75 1
    endloop
  endfacet
  facet normal 0 0 1
    outer loop
      vertex 13.5 40.75 1
      vertex 15.5 60.75 1
      vertex 13.5 60.75 1
    endloop
  endfacet
  facet normal 0 0 1
    outer loop
      vertex 25.2729 65.7634 1
      vertex 15.5 60.75 1
      vertex 17.5 60.75 1
    endloop
  endfacet
  facet normal 0 0 1
    outer loop
      vertex 15.5 60.75 1
      vertex 7.12705 65.7634 1
      vertex 13.5 60.75 1
    endloop
  endfacet
  facet normal 0 0 1
    outer loop
      vertex 9.5 40.75 1
      vertex 11.5 40.75 1
      vertex 11.5 60.75 1
    endloop
  endfacet
  facet normal 0 0 1
    outer loop
      vertex 11.5 40.75 1
      vertex 9.5 40.75 1
      vertex 11.5 29.75 1
    endloop
  endfacet
  facet normal 0 0 1
    outer loop
      vertex 9.5 40.75 1
      vertex 11.5 60.75 1
      vertex 9.5 60.75 1
    endloop
  endfacet
  facet normal -0 -0 1
    outer loop
      vertex 7.7 64 1
      vertex 13.5 60.75 1
      vertex 7.12705 65.7634 1
    endloop
  endfacet
  facet normal 0 0 1
    outer loop
      vertex 13.5 60.75 1
      vertex 7.7 64 1
      vertex 11.5 60.75 1
    endloop
  endfacet
  facet normal 0 0 1
    outer loop
      vertex 11.5 60.75 1
      vertex 7.7 64 1
      vertex 9.5 60.75 1
    endloop
  endfacet
  facet normal 0 0 1
    outer loop
      vertex 31.5 77.5 1
      vertex 7.12705 65.7634 1
      vertex 25.2729 65.7634 1
    endloop
  endfacet
  facet normal 0 0 1
    outer loop
      vertex 31.5 77.5 1
      vertex 25.2729 65.7634 1
      vertex 26.7729 66.8532 1
    endloop
  endfacet
  facet normal 0 0 1
    outer loop
      vertex 5.62705 66.8532 1
      vertex 0.75 91 1
      vertex 3.77295 66.8532 1
    endloop
  endfacet
  facet normal 0 0 1
    outer loop
      vertex 0.75 1 1
      vertex 1.7 64 1
      vertex 0.75 91 1
    endloop
  endfacet
  facet normal 0 0 1
    outer loop
      vertex 2.27295 65.7634 1
      vertex 0.75 91 1
      vertex 1.7 64 1
    endloop
  endfacet
  facet normal 0 0 1
    outer loop
      vertex 3.77295 66.8532 1
      vertex 0.75 91 1
      vertex 2.27295 65.7634 1
    endloop
  endfacet
  facet normal -0 0 1
    outer loop
      vertex 30.7 6 1
      vertex 31.5 1 1
      vertex 30.7 64 1
    endloop
  endfacet
  facet normal -0 0 1
    outer loop
      vertex 30.1271 4.23664 1
      vertex 31.5 1 1
      vertex 30.7 6 1
    endloop
  endfacet
  facet normal -0 0 1
    outer loop
      vertex 28.6271 3.14683 1
      vertex 31.5 1 1
      vertex 30.1271 4.23664 1
    endloop
  endfacet
  facet normal -0 0 1
    outer loop
      vertex 26.7729 3.14683 1
      vertex 31.5 1 1
      vertex 28.6271 3.14683 1
    endloop
  endfacet
  facet normal 0 0 1
    outer loop
      vertex 21.5 29.75 1
      vertex 23.5 29.75 1
      vertex 21.5 40.75 1
    endloop
  endfacet
  facet normal 0 0 1
    outer loop
      vertex 23.5 29.75 1
      vertex 21.5 29.75 1
      vertex 23.5 9.75 1
    endloop
  endfacet
  facet normal 0 0 1
    outer loop
      vertex 21.5 9.75 1
      vertex 23.5 9.75 1
      vertex 21.5 29.75 1
    endloop
  endfacet
  facet normal -0 0 1
    outer loop
      vertex 21.5 9.75 1
      vertex 24.7 6 1
      vertex 23.5 9.75 1
    endloop
  endfacet
  facet normal -0 0 1
    outer loop
      vertex 19.5 9.75 1
      vertex 24.7 6 1
      vertex 21.5 9.75 1
    endloop
  endfacet
  facet normal 0 0 1
    outer loop
      vertex 24.7 6 1
      vertex 19.5 9.75 1
      vertex 25.2729 4.23664 1
    endloop
  endfacet
  facet normal 0 0 1
    outer loop
      vertex 17.5 29.75 1
      vertex 19.5 29.75 1
      vertex 17.5 40.75 1
    endloop
  endfacet
  facet normal 0 0 1
    outer loop
      vertex 19.5 29.75 1
      vertex 17.5 29.75 1
      vertex 19.5 9.75 1
    endloop
  endfacet
  facet normal 0 0 1
    outer loop
      vertex 17.5 9.75 1
      vertex 19.5 9.75 1
      vertex 17.5 29.75 1
    endloop
  endfacet
  facet normal -0 0 1
    outer loop
      vertex 17.5 9.75 1
      vertex 25.2729 4.23664 1
      vertex 19.5 9.75 1
    endloop
  endfacet
  facet normal -0 0 1
    outer loop
      vertex 15.5 9.75 1
      vertex 25.2729 4.23664 1
      vertex 17.5 9.75 1
    endloop
  endfacet
  facet normal 0 0 1
    outer loop
      vertex 25.2729 4.23664 1
      vertex 15.5 9.75 1
      vertex 7.12705 4.23664 1
    endloop
  endfacet
  facet normal 0 0 1
    outer loop
      vertex 13.5 29.75 1
      vertex 15.5 29.75 1
      vertex 13.5 40.75 1
    endloop
  endfacet
  facet normal 0 0 1
    outer loop
      vertex 15.5 29.75 1
      vertex 13.5 29.75 1
      vertex 15.5 9.75 1
    endloop
  endfacet
  facet normal 0 0 1
    outer loop
      vertex 13.5 9.75 1
      vertex 15.5 9.75 1
      vertex 13.5 29.75 1
    endloop
  endfacet
  facet normal 0 0 1
    outer loop
      vertex 7.12705 4.23664 1
      vertex 15.5 9.75 1
      vertex 13.5 9.75 1
    endloop
  endfacet
  facet normal 0 0 1
    outer loop
      vertex 7.7 6 1
      vertex 13.5 9.75 1
      vertex 11.5 9.75 1
    endloop
  endfacet
  facet normal 0 0 1
    outer loop
      vertex 25.2729 4.23664 1
      vertex 7.12705 4.23664 1
      vertex 26.7729 3.14683 1
    endloop
  endfacet
  facet normal 0 0 1
    outer loop
      vertex 9.5 29.75 1
      vertex 11.5 29.75 1
      vertex 9.5 40.75 1
    endloop
  endfacet
  facet normal 0 0 1
    outer loop
      vertex 11.5 29.75 1
      vertex 9.5 29.75 1
      vertex 11.5 9.75 1
    endloop
  endfacet
  facet normal 0 0 1
    outer loop
      vertex 9.5 9.75 1
      vertex 11.5 9.75 1
      vertex 9.5 29.75 1
    endloop
  endfacet
  facet normal 0 0 1
    outer loop
      vertex 7.7 6 1
      vertex 11.5 9.75 1
      vertex 9.5 9.75 1
    endloop
  endfacet
  facet normal 0 0 1
    outer loop
      vertex 13.5 9.75 1
      vertex 7.7 6 1
      vertex 7.12705 4.23664 1
    endloop
  endfacet
  facet normal 0 0 1
    outer loop
      vertex 5.62705 3.14683 1
      vertex 26.7729 3.14683 1
      vertex 7.12705 4.23664 1
    endloop
  endfacet
  facet normal 0 0 1
    outer loop
      vertex 26.7729 3.14683 1
      vertex 5.62705 3.14683 1
      vertex 31.5 1 1
    endloop
  endfacet
  facet normal 0 0 1
    outer loop
      vertex 0.75 1 1
      vertex 5.62705 3.14683 1
      vertex 3.77295 3.14683 1
    endloop
  endfacet
  facet normal 0 0 1
    outer loop
      vertex 5.62705 3.14683 1
      vertex 0.75 1 1
      vertex 31.5 1 1
    endloop
  endfacet
  facet normal 0 0 1
    outer loop
      vertex 2.27295 4.23664 1
      vertex 0.75 1 1
      vertex 3.77295 3.14683 1
    endloop
  endfacet
  facet normal 0 0 1
    outer loop
      vertex 1.7 6 1
      vertex 0.75 1 1
      vertex 2.27295 4.23664 1
    endloop
  endfacet
  facet normal 0 0 1
    outer loop
      vertex 1.7 64 1
      vertex 0.75 1 1
      vertex 1.7 6 1
    endloop
  endfacet
  facet normal 0 0 1
    outer loop
      vertex 30.1271 7.76336 1
      vertex 25.5 29.75 1
      vertex 28.6271 8.85317 1
    endloop
  endfacet
  facet normal -0 0 1
    outer loop
      vertex 25.5 9.75 1
      vertex 28.6271 8.85317 1
      vertex 25.5 29.75 1
    endloop
  endfacet
  facet normal 0 0 1
    outer loop
      vertex 28.6271 8.85317 1
      vertex 25.5 9.75 1
      vertex 26.7729 8.85317 1
    endloop
  endfacet
  facet normal 0 0 1
    outer loop
      vertex 25.5 9.75 1
      vertex 25.2729 7.76336 1
      vertex 26.7729 8.85317 1
    endloop
  endfacet
  facet normal -0 0 1
    outer loop
      vertex 23.5 9.75 1
      vertex 25.2729 7.76336 1
      vertex 25.5 9.75 1
    endloop
  endfacet
  facet normal 0 0 1
    outer loop
      vertex 25.2729 7.76336 1
      vertex 23.5 9.75 1
      vertex 24.7 6 1
    endloop
  endfacet
  facet normal 0 1 -0
    outer loop
      vertex 58 91 -1
      vertex 33 91 1
      vertex 58 91 1
    endloop
  endfacet
  facet normal 0 1 0
    outer loop
      vertex 33 91 1
      vertex 58 91 -1
      vertex 32.5 91 1
    endloop
  endfacet
  facet normal 0 1 0
    outer loop
      vertex 0.75 91 -1
      vertex 32.5 91 1
      vertex 58 91 -1
    endloop
  endfacet
  facet normal 0 1 0
    outer loop
      vertex 32.5 91 1
      vertex 0.75 91 -1
      vertex 0.75 91 1
    endloop
  endfacet
  facet normal 0 1 -0
    outer loop
      vertex 33 91 1
      vertex 32.5 91 15
      vertex 33 91 15
    endloop
  endfacet
  facet normal 0 1 0
    outer loop
      vertex 32.5 91 15
      vertex 33 91 1
      vertex 32.5 91 1
    endloop
  endfacet
  facet normal 1 -0 0
    outer loop
      vertex 7.5 9.75 1
      vertex 7.5 29.75 -1
      vertex 7.5 29.75 1
    endloop
  endfacet
  facet normal 1 0 0
    outer loop
      vertex 7.5 29.75 -1
      vertex 7.5 9.75 1
      vertex 7.5 9.75 -1
    endloop
  endfacet
  facet normal -1 0 0
    outer loop
      vertex 9.5 9.75 -1
      vertex 9.5 29.75 1
      vertex 9.5 29.75 -1
    endloop
  endfacet
  facet normal -1 -0 0
    outer loop
      vertex 9.5 29.75 1
      vertex 9.5 9.75 -1
      vertex 9.5 9.75 1
    endloop
  endfacet
  facet normal 0 -1 0
    outer loop
      vertex 7.5 29.75 -1
      vertex 9.5 29.75 1
      vertex 7.5 29.75 1
    endloop
  endfacet
  facet normal 0 -1 -0
    outer loop
      vertex 9.5 29.75 1
      vertex 7.5 29.75 -1
      vertex 9.5 29.75 -1
    endloop
  endfacet
  facet normal 0 1 -0
    outer loop
      vertex 9.5 9.75 -1
      vertex 7.5 9.75 1
      vertex 9.5 9.75 1
    endloop
  endfacet
  facet normal 0 1 0
    outer loop
      vertex 7.5 9.75 1
      vertex 9.5 9.75 -1
      vertex 7.5 9.75 -1
    endloop
  endfacet
  facet normal 1 -0 0
    outer loop
      vertex 11.5 9.75 1
      vertex 11.5 29.75 -1
      vertex 11.5 29.75 1
    endloop
  endfacet
  facet normal 1 0 0
    outer loop
      vertex 11.5 29.75 -1
      vertex 11.5 9.75 1
      vertex 11.5 9.75 -1
    endloop
  endfacet
  facet normal -1 0 0
    outer loop
      vertex 13.5 9.75 -1
      vertex 13.5 29.75 1
      vertex 13.5 29.75 -1
    endloop
  endfacet
  facet normal -1 -0 0
    outer loop
      vertex 13.5 29.75 1
      vertex 13.5 9.75 -1
      vertex 13.5 9.75 1
    endloop
  endfacet
  facet normal 0 1 -0
    outer loop
      vertex 13.5 9.75 -1
      vertex 11.5 9.75 1
      vertex 13.5 9.75 1
    endloop
  endfacet
  facet normal 0 1 0
    outer loop
      vertex 11.5 9.75 1
      vertex 13.5 9.75 -1
      vertex 11.5 9.75 -1
    endloop
  endfacet
  facet normal 0 -1 0
    outer loop
      vertex 11.5 29.75 -1
      vertex 13.5 29.75 1
      vertex 11.5 29.75 1
    endloop
  endfacet
  facet normal 0 -1 -0
    outer loop
      vertex 13.5 29.75 1
      vertex 11.5 29.75 -1
      vertex 13.5 29.75 -1
    endloop
  endfacet
  facet normal 1 -0 0
    outer loop
      vertex 15.5 9.75 1
      vertex 15.5 29.75 -1
      vertex 15.5 29.75 1
    endloop
  endfacet
  facet normal 1 0 0
    outer loop
      vertex 15.5 29.75 -1
      vertex 15.5 9.75 1
      vertex 15.5 9.75 -1
    endloop
  endfacet
  facet normal -1 0 0
    outer loop
      vertex 17.5 9.75 -1
      vertex 17.5 29.75 1
      vertex 17.5 29.75 -1
    endloop
  endfacet
  facet normal -1 -0 0
    outer loop
      vertex 17.5 29.75 1
      vertex 17.5 9.75 -1
      vertex 17.5 9.75 1
    endloop
  endfacet
  facet normal 0 -1 0
    outer loop
      vertex 15.5 29.75 -1
      vertex 17.5 29.75 1
      vertex 15.5 29.75 1
    endloop
  endfacet
  facet normal 0 -1 -0
    outer loop
      vertex 17.5 29.75 1
      vertex 15.5 29.75 -1
      vertex 17.5 29.75 -1
    endloop
  endfacet
  facet normal 0 1 -0
    outer loop
      vertex 17.5 9.75 -1
      vertex 15.5 9.75 1
      vertex 17.5 9.75 1
    endloop
  endfacet
  facet normal 0 1 0
    outer loop
      vertex 15.5 9.75 1
      vertex 17.5 9.75 -1
      vertex 15.5 9.75 -1
    endloop
  endfacet
  facet normal 1 -0 0
    outer loop
      vertex 19.5 9.75 1
      vertex 19.5 29.75 -1
      vertex 19.5 29.75 1
    endloop
  endfacet
  facet normal 1 0 0
    outer loop
      vertex 19.5 29.75 -1
      vertex 19.5 9.75 1
      vertex 19.5 9.75 -1
    endloop
  endfacet
  facet normal -1 0 0
    outer loop
      vertex 21.5 9.75 -1
      vertex 21.5 29.75 1
      vertex 21.5 29.75 -1
    endloop
  endfacet
  facet normal -1 -0 0
    outer loop
      vertex 21.5 29.75 1
      vertex 21.5 9.75 -1
      vertex 21.5 9.75 1
    endloop
  endfacet
  facet normal 0 -1 0
    outer loop
      vertex 19.5 29.75 -1
      vertex 21.5 29.75 1
      vertex 19.5 29.75 1
    endloop
  endfacet
  facet normal 0 -1 -0
    outer loop
      vertex 21.5 29.75 1
      vertex 19.5 29.75 -1
      vertex 21.5 29.75 -1
    endloop
  endfacet
  facet normal 0 1 -0
    outer loop
      vertex 21.5 9.75 -1
      vertex 19.5 9.75 1
      vertex 21.5 9.75 1
    endloop
  endfacet
  facet normal 0 1 0
    outer loop
      vertex 19.5 9.75 1
      vertex 21.5 9.75 -1
      vertex 19.5 9.75 -1
    endloop
  endfacet
  facet normal 1 -0 0
    outer loop
      vertex 23.5 9.75 1
      vertex 23.5 29.75 -1
      vertex 23.5 29.75 1
    endloop
  endfacet
  facet normal 1 0 0
    outer loop
      vertex 23.5 29.75 -1
      vertex 23.5 9.75 1
      vertex 23.5 9.75 -1
    endloop
  endfacet
  facet normal -1 0 0
    outer loop
      vertex 25.5 9.75 -1
      vertex 25.5 29.75 1
      vertex 25.5 29.75 -1
    endloop
  endfacet
  facet normal -1 -0 0
    outer loop
      vertex 25.5 29.75 1
      vertex 25.5 9.75 -1
      vertex 25.5 9.75 1
    endloop
  endfacet
  facet normal 0 1 -0
    outer loop
      vertex 25.5 9.75 -1
      vertex 23.5 9.75 1
      vertex 25.5 9.75 1
    endloop
  endfacet
  facet normal 0 1 0
    outer loop
      vertex 23.5 9.75 1
      vertex 25.5 9.75 -1
      vertex 23.5 9.75 -1
    endloop
  endfacet
  facet normal 0 -1 0
    outer loop
      vertex 23.5 29.75 -1
      vertex 25.5 29.75 1
      vertex 23.5 29.75 1
    endloop
  endfacet
  facet normal 0 -1 -0
    outer loop
      vertex 25.5 29.75 1
      vertex 23.5 29.75 -1
      vertex 25.5 29.75 -1
    endloop
  endfacet
  facet normal 1 -0 0
    outer loop
      vertex 7.5 40.75 1
      vertex 7.5 60.75 -1
      vertex 7.5 60.75 1
    endloop
  endfacet
  facet normal 1 0 0
    outer loop
      vertex 7.5 60.75 -1
      vertex 7.5 40.75 1
      vertex 7.5 40.75 -1
    endloop
  endfacet
  facet normal -1 0 0
    outer loop
      vertex 9.5 40.75 -1
      vertex 9.5 60.75 1
      vertex 9.5 60.75 -1
    endloop
  endfacet
  facet normal -1 -0 0
    outer loop
      vertex 9.5 60.75 1
      vertex 9.5 40.75 -1
      vertex 9.5 40.75 1
    endloop
  endfacet
  facet normal 0 1 -0
    outer loop
      vertex 9.5 40.75 -1
      vertex 7.5 40.75 1
      vertex 9.5 40.75 1
    endloop
  endfacet
  facet normal 0 1 0
    outer loop
      vertex 7.5 40.75 1
      vertex 9.5 40.75 -1
      vertex 7.5 40.75 -1
    endloop
  endfacet
  facet normal 0 -1 0
    outer loop
      vertex 7.5 60.75 -1
      vertex 9.5 60.75 1
      vertex 7.5 60.75 1
    endloop
  endfacet
  facet normal 0 -1 -0
    outer loop
      vertex 9.5 60.75 1
      vertex 7.5 60.75 -1
      vertex 9.5 60.75 -1
    endloop
  endfacet
  facet normal 1 -0 0
    outer loop
      vertex 11.5 40.75 1
      vertex 11.5 60.75 -1
      vertex 11.5 60.75 1
    endloop
  endfacet
  facet normal 1 0 0
    outer loop
      vertex 11.5 60.75 -1
      vertex 11.5 40.75 1
      vertex 11.5 40.75 -1
    endloop
  endfacet
  facet normal -1 0 0
    outer loop
      vertex 13.5 40.75 -1
      vertex 13.5 60.75 1
      vertex 13.5 60.75 -1
    endloop
  endfacet
  facet normal -1 -0 0
    outer loop
      vertex 13.5 60.75 1
      vertex 13.5 40.75 -1
      vertex 13.5 40.75 1
    endloop
  endfacet
  facet normal 0 1 -0
    outer loop
      vertex 13.5 40.75 -1
      vertex 11.5 40.75 1
      vertex 13.5 40.75 1
    endloop
  endfacet
  facet normal 0 1 0
    outer loop
      vertex 11.5 40.75 1
      vertex 13.5 40.75 -1
      vertex 11.5 40.75 -1
    endloop
  endfacet
  facet normal 0 -1 0
    outer loop
      vertex 11.5 60.75 -1
      vertex 13.5 60.75 1
      vertex 11.5 60.75 1
    endloop
  endfacet
  facet normal 0 -1 -0
    outer loop
      vertex 13.5 60.75 1
      vertex 11.5 60.75 -1
      vertex 13.5 60.75 -1
    endloop
  endfacet
  facet normal 1 -0 0
    outer loop
      vertex 15.5 40.75 1
      vertex 15.5 60.75 -1
      vertex 15.5 60.75 1
    endloop
  endfacet
  facet normal 1 0 0
    outer loop
      vertex 15.5 60.75 -1
      vertex 15.5 40.75 1
      vertex 15.5 40.75 -1
    endloop
  endfacet
  facet normal -1 0 0
    outer loop
      vertex 17.5 40.75 -1
      vertex 17.5 60.75 1
      vertex 17.5 60.75 -1
    endloop
  endfacet
  facet normal -1 -0 0
    outer loop
      vertex 17.5 60.75 1
      vertex 17.5 40.75 -1
      vertex 17.5 40.75 1
    endloop
  endfacet
  facet normal 0 -1 0
    outer loop
      vertex 15.5 60.75 -1
      vertex 17.5 60.75 1
      vertex 15.5 60.75 1
    endloop
  endfacet
  facet normal 0 -1 -0
    outer loop
      vertex 17.5 60.75 1
      vertex 15.5 60.75 -1
      vertex 17.5 60.75 -1
    endloop
  endfacet
  facet normal 0 1 -0
    outer loop
      vertex 17.5 40.75 -1
      vertex 15.5 40.75 1
      vertex 17.5 40.75 1
    endloop
  endfacet
  facet normal 0 1 0
    outer loop
      vertex 15.5 40.75 1
      vertex 17.5 40.75 -1
      vertex 15.5 40.75 -1
    endloop
  endfacet
  facet normal 1 -0 0
    outer loop
      vertex 19.5 40.75 1
      vertex 19.5 60.75 -1
      vertex 19.5 60.75 1
    endloop
  endfacet
  facet normal 1 0 0
    outer loop
      vertex 19.5 60.75 -1
      vertex 19.5 40.75 1
      vertex 19.5 40.75 -1
    endloop
  endfacet
  facet normal -1 0 0
    outer loop
      vertex 21.5 40.75 -1
      vertex 21.5 60.75 1
      vertex 21.5 60.75 -1
    endloop
  endfacet
  facet normal -1 -0 0
    outer loop
      vertex 21.5 60.75 1
      vertex 21.5 40.75 -1
      vertex 21.5 40.75 1
    endloop
  endfacet
  facet normal 0 1 -0
    outer loop
      vertex 21.5 40.75 -1
      vertex 19.5 40.75 1
      vertex 21.5 40.75 1
    endloop
  endfacet
  facet normal 0 1 0
    outer loop
      vertex 19.5 40.75 1
      vertex 21.5 40.75 -1
      vertex 19.5 40.75 -1
    endloop
  endfacet
  facet normal 0 -1 0
    outer loop
      vertex 19.5 60.75 -1
      vertex 21.5 60.75 1
      vertex 19.5 60.75 1
    endloop
  endfacet
  facet normal 0 -1 -0
    outer loop
      vertex 21.5 60.75 1
      vertex 19.5 60.75 -1
      vertex 21.5 60.75 -1
    endloop
  endfacet
  facet normal 1 -0 0
    outer loop
      vertex 23.5 40.75 1
      vertex 23.5 60.75 -1
      vertex 23.5 60.75 1
    endloop
  endfacet
  facet normal 1 0 0
    outer loop
      vertex 23.5 60.75 -1
      vertex 23.5 40.75 1
      vertex 23.5 40.75 -1
    endloop
  endfacet
  facet normal -1 0 0
    outer loop
      vertex 25.5 40.75 -1
      vertex 25.5 60.75 1
      vertex 25.5 60.75 -1
    endloop
  endfacet
  facet normal -1 -0 0
    outer loop
      vertex 25.5 60.75 1
      vertex 25.5 40.75 -1
      vertex 25.5 40.75 1
    endloop
  endfacet
  facet normal 0 -1 0
    outer loop
      vertex 23.5 60.75 -1
      vertex 25.5 60.75 1
      vertex 23.5 60.75 1
    endloop
  endfacet
  facet normal 0 -1 -0
    outer loop
      vertex 25.5 60.75 1
      vertex 23.5 60.75 -1
      vertex 25.5 60.75 -1
    endloop
  endfacet
  facet normal 0 1 -0
    outer loop
      vertex 25.5 40.75 -1
      vertex 23.5 40.75 1
      vertex 25.5 40.75 1
    endloop
  endfacet
  facet normal 0 1 0
    outer loop
      vertex 23.5 40.75 1
      vertex 25.5 40.75 -1
      vertex 23.5 40.75 -1
    endloop
  endfacet
  facet normal -1 0 0
    outer loop
      vertex 31.5 1 1
      vertex 31.5 77.5 15
      vertex 31.5 77.5 1
    endloop
  endfacet
  facet normal -1 -0 0
    outer loop
      vertex 31.5 77.5 15
      vertex 31.5 1 1
      vertex 31.5 1 15
    endloop
  endfacet
  facet normal 1 -0 0
    outer loop
      vertex 33.5 1 15
      vertex 33.5 77.5 1
      vertex 33.5 77.5 15
    endloop
  endfacet
  facet normal 1 0 0
    outer loop
      vertex 33.5 77.5 1
      vertex 33.5 1 15
      vertex 33.5 1 1
    endloop
  endfacet
  facet normal 0 1 -0
    outer loop
      vertex 33.5 77.5 1
      vertex 33 77.5 15
      vertex 33.5 77.5 15
    endloop
  endfacet
  facet normal 0 1 0
    outer loop
      vertex 33 77.5 15
      vertex 33.5 77.5 1
      vertex 33 77.5 1
    endloop
  endfacet
  facet normal 0 1 -0
    outer loop
      vertex 32.5 77.5 1
      vertex 31.5 77.5 15
      vertex 32.5 77.5 15
    endloop
  endfacet
  facet normal 0 1 0
    outer loop
      vertex 31.5 77.5 15
      vertex 32.5 77.5 1
      vertex 31.5 77.5 1
    endloop
  endfacet
  facet normal -1 0 0
    outer loop
      vertex 32.5 90 8.5
      vertex 32.5 91 1
      vertex 32.5 90 2
    endloop
  endfacet
  facet normal -1 0 0
    outer loop
      vertex 32.5 77.5 1
      vertex 32.5 90 2
      vertex 32.5 91 1
    endloop
  endfacet
  facet normal -1 -0 0
    outer loop
      vertex 32.5 78 2
      vertex 32.5 77.5 1
      vertex 32.5 78 8.5
    endloop
  endfacet
  facet normal -1 -0 0
    outer loop
      vertex 32.5 90 2
      vertex 32.5 77.5 1
      vertex 32.5 78 2
    endloop
  endfacet
  facet normal -1 0 0
    outer loop
      vertex 32.5 91 1
      vertex 32.5 90 8.5
      vertex 32.5 91 15
    endloop
  endfacet
  facet normal -1 0 0
    outer loop
      vertex 32.5 77.5 15
      vertex 32.5 90 8.5
      vertex 32.5 78 8.5
    endloop
  endfacet
  facet normal -1 0 0
    outer loop
      vertex 32.5 90 8.5
      vertex 32.5 77.5 15
      vertex 32.5 91 15
    endloop
  endfacet
  facet normal -1 0 0
    outer loop
      vertex 32.5 77.5 15
      vertex 32.5 78 8.5
      vertex 32.5 77.5 1
    endloop
  endfacet
  facet normal 1 0 0
    outer loop
      vertex 58 1 15
      vertex 58 0 15
      vertex 58 1 1
    endloop
  endfacet
  facet normal 1 -0 0
    outer loop
      vertex 58 1 1
      vertex 58 91 -1
      vertex 58 91 1
    endloop
  endfacet
  facet normal 1 0 0
    outer loop
      vertex 58 1 1
      vertex 58 0 -1
      vertex 58 91 -1
    endloop
  endfacet
  facet normal 1 0 0
    outer loop
      vertex 58 0 -1
      vertex 58 1 1
      vertex 58 0 15
    endloop
  endfacet
  facet normal 1 0 0
    outer loop
      vertex 33 91 15
      vertex 33 90 8.5
      vertex 33 91 1
    endloop
  endfacet
  facet normal 1 -0 0
    outer loop
      vertex 33 77.5 15
      vertex 33 90 8.5
      vertex 33 91 15
    endloop
  endfacet
  facet normal 1 0 0
    outer loop
      vertex 33 77.5 1
      vertex 33 78 8.5
      vertex 33 77.5 15
    endloop
  endfacet
  facet normal 1 0 0
    outer loop
      vertex 33 90 8.5
      vertex 33 77.5 15
      vertex 33 78 8.5
    endloop
  endfacet
  facet normal 1 -0 0
    outer loop
      vertex 33 90 2
      vertex 33 91 1
      vertex 33 90 8.5
    endloop
  endfacet
  facet normal 1 0 0
    outer loop
      vertex 33 77.5 1
      vertex 33 90 2
      vertex 33 78 2
    endloop
  endfacet
  facet normal 1 0 0
    outer loop
      vertex 33 90 2
      vertex 33 77.5 1
      vertex 33 91 1
    endloop
  endfacet
  facet normal 1 0 0
    outer loop
      vertex 33 78 8.5
      vertex 33 77.5 1
      vertex 33 78 2
    endloop
  endfacet
  facet normal 0 1 0
    outer loop
      vertex 58 1 15
      vertex 53.3 1 13
      vertex 33.5 1 15
    endloop
  endfacet
  facet normal 0 1 -0
    outer loop
      vertex 58 1 1
      vertex 53.3 1 13
      vertex 58 1 15
    endloop
  endfacet
  facet normal 0 1 0
    outer loop
      vertex 53.3 1 13
      vertex 58 1 1
      vertex 53.3 1 1
    endloop
  endfacet
  facet normal 0 1 -0
    outer loop
      vertex 38.3 1 13
      vertex 33.5 1 15
      vertex 53.3 1 13
    endloop
  endfacet
  facet normal 0 1 0
    outer loop
      vertex 33.5 1 1
      vertex 38.3 1 13
      vertex 38.3 1 1
    endloop
  endfacet
  facet normal 0 1 0
    outer loop
      vertex 38.3 1 13
      vertex 33.5 1 1
      vertex 33.5 1 15
    endloop
  endfacet
  facet normal -1 0 0
    outer loop
      vertex 33.25 90.5 1
      vertex 33.25 90 2
      vertex 33.25 90.5 5
    endloop
  endfacet
  facet normal -1 0 0
    outer loop
      vertex 33.25 89.5 1
      vertex 33.25 90 2
      vertex 33.25 90.5 1
    endloop
  endfacet
  facet normal -1 -0 0
    outer loop
      vertex 33.25 90 2
      vertex 33.25 89.5 1
      vertex 33.25 89.5 2
    endloop
  endfacet
  facet normal -1 -0 0
    outer loop
      vertex 33.25 90.5 5
      vertex 33.25 90 2
      vertex 33.25 90 5
    endloop
  endfacet
  facet normal 0 0 1
    outer loop
      vertex 57.75 90.5 5
      vertex 35.5 90 5
      vertex 57.75 89.5 5
    endloop
  endfacet
  facet normal -0 0 1
    outer loop
      vertex 33.25 90.5 5
      vertex 35.5 90 5
      vertex 57.75 90.5 5
    endloop
  endfacet
  facet normal 0 0 1
    outer loop
      vertex 35.5 90 5
      vertex 33.25 90.5 5
      vertex 33.25 90 5
    endloop
  endfacet
  facet normal 0 0 1
    outer loop
      vertex 57.75 89.5 5
      vertex 35.5 90 5
      vertex 35.5 89.5 5
    endloop
  endfacet
  facet normal 1 -0 0
    outer loop
      vertex 57.75 89.5 5
      vertex 57.75 90.5 1
      vertex 57.75 90.5 5
    endloop
  endfacet
  facet normal 1 0 0
    outer loop
      vertex 57.75 90.5 1
      vertex 57.75 89.5 5
      vertex 57.75 89.5 1
    endloop
  endfacet
  facet normal 0 1 -0
    outer loop
      vertex 57.75 90.5 1
      vertex 33.25 90.5 5
      vertex 57.75 90.5 5
    endloop
  endfacet
  facet normal 0 1 0
    outer loop
      vertex 33.25 90.5 5
      vertex 57.75 90.5 1
      vertex 33.25 90.5 1
    endloop
  endfacet
  facet normal 0 -1 0
    outer loop
      vertex 33.25 89.5 2
      vertex 33.25 89.5 1
      vertex 35.5 89.5 2
    endloop
  endfacet
  facet normal 0 -1 0
    outer loop
      vertex 35.5 89.5 2
      vertex 57.75 89.5 5
      vertex 35.5 89.5 5
    endloop
  endfacet
  facet normal 0 -1 0
    outer loop
      vertex 57.75 89.5 1
      vertex 35.5 89.5 2
      vertex 33.25 89.5 1
    endloop
  endfacet
  facet normal 0 -1 0
    outer loop
      vertex 35.5 89.5 2
      vertex 57.75 89.5 1
      vertex 57.75 89.5 5
    endloop
  endfacet
  facet normal 1 -0 0
    outer loop
      vertex 38.3 0 13
      vertex 38.3 1 1
      vertex 38.3 1 13
    endloop
  endfacet
  facet normal 1 0 0
    outer loop
      vertex 38.3 1 1
      vertex 38.3 0 13
      vertex 38.3 0 1
    endloop
  endfacet
  facet normal 0 0 -1
    outer loop
      vertex 38.3 0 13
      vertex 53.3 1 13
      vertex 53.3 0 13
    endloop
  endfacet
  facet normal -0 0 -1
    outer loop
      vertex 53.3 1 13
      vertex 38.3 0 13
      vertex 38.3 1 13
    endloop
  endfacet
  facet normal -1 0 0
    outer loop
      vertex 53.3 0 1
      vertex 53.3 1 13
      vertex 53.3 1 1
    endloop
  endfacet
  facet normal -1 -0 0
    outer loop
      vertex 53.3 1 13
      vertex 53.3 0 1
      vertex 53.3 0 13
    endloop
  endfacet
  facet normal -0 0 1
    outer loop
      vertex 38.3 1 1
      vertex 43.8 0 1
      vertex 43.8 1 1
    endloop
  endfacet
  facet normal 0 0 1
    outer loop
      vertex 43.8 0 1
      vertex 38.3 1 1
      vertex 38.3 0 1
    endloop
  endfacet
  facet normal -0 0 1
    outer loop
      vertex 47.4 1 1
      vertex 53.3 0 1
      vertex 53.3 1 1
    endloop
  endfacet
  facet normal 0 0 1
    outer loop
      vertex 53.3 0 1
      vertex 47.4 1 1
      vertex 47.4 0 1
    endloop
  endfacet
  facet normal 1 -0 0
    outer loop
      vertex 43.8 1 1
      vertex 43.8 3 -1
      vertex 43.8 3 1
    endloop
  endfacet
  facet normal 1 0 0
    outer loop
      vertex 43.8 0 -1
      vertex 43.8 1 1
      vertex 43.8 0 1
    endloop
  endfacet
  facet normal 1 0 0
    outer loop
      vertex 43.8 1 1
      vertex 43.8 0 -1
      vertex 43.8 3 -1
    endloop
  endfacet
  facet normal -1 0 0
    outer loop
      vertex 47.4 3 -1
      vertex 47.4 1 1
      vertex 47.4 3 1
    endloop
  endfacet
  facet normal -1 0 0
    outer loop
      vertex 47.4 0 -1
      vertex 47.4 1 1
      vertex 47.4 3 -1
    endloop
  endfacet
  facet normal -1 -0 0
    outer loop
      vertex 47.4 1 1
      vertex 47.4 0 -1
      vertex 47.4 0 1
    endloop
  endfacet
  facet normal 0 -1 0
    outer loop
      vertex 43.8 3 -1
      vertex 47.4 3 1
      vertex 43.8 3 1
    endloop
  endfacet
  facet normal 0 -1 -0
    outer loop
      vertex 47.4 3 1
      vertex 43.8 3 -1
      vertex 47.4 3 -1
    endloop
  endfacet
  facet normal 0 0 -1
    outer loop
      vertex 32.5 78 8.5
      vertex 33 90 8.5
      vertex 33 78 8.5
    endloop
  endfacet
  facet normal -0 0 -1
    outer loop
      vertex 33 90 8.5
      vertex 32.5 78 8.5
      vertex 32.5 90 8.5
    endloop
  endfacet
  facet normal -1 0 0
    outer loop
      vertex 35.5 89.5 2
      vertex 35.5 90 5
      vertex 35.5 90 2
    endloop
  endfacet
  facet normal -1 -0 0
    outer loop
      vertex 35.5 90 5
      vertex 35.5 89.5 2
      vertex 35.5 89.5 5
    endloop
  endfacet
  facet normal 0 -1 0
    outer loop
      vertex 33.25 90 2
      vertex 35.5 90 5
      vertex 33.25 90 5
    endloop
  endfacet
  facet normal 0 -1 -0
    outer loop
      vertex 35.5 90 5
      vertex 33.25 90 2
      vertex 35.5 90 2
    endloop
  endfacet
  facet normal 0 -1 0
    outer loop
      vertex 32.5 90 2
      vertex 33 90 8.5
      vertex 32.5 90 8.5
    endloop
  endfacet
  facet normal 0 -1 -0
    outer loop
      vertex 33 90 8.5
      vertex 32.5 90 2
      vertex 33 90 2
    endloop
  endfacet
  facet normal -0 0 1
    outer loop
      vertex 33.25 90 2
      vertex 35.5 89.5 2
      vertex 35.5 90 2
    endloop
  endfacet
  facet normal 0 0 1
    outer loop
      vertex 35.5 89.5 2
      vertex 33.25 90 2
      vertex 33.25 89.5 2
    endloop
  endfacet
  facet normal -0 0 1
    outer loop
      vertex 32.5 90 2
      vertex 33 78 2
      vertex 33 90 2
    endloop
  endfacet
  facet normal 0 0 1
    outer loop
      vertex 33 78 2
      vertex 32.5 90 2
      vertex 32.5 78 2
    endloop
  endfacet
  facet normal 0 1 -0
    outer loop
      vertex 33 78 2
      vertex 32.5 78 8.5
      vertex 33 78 8.5
    endloop
  endfacet
  facet normal 0 1 0
    outer loop
      vertex 32.5 78 8.5
      vertex 33 78 2
      vertex 32.5 78 2
    endloop
  endfacet
endsolid OpenSCAD_Model
